<?xml version="1.0" encoding="UTF-8"?>
<svg width="415px" height="238px" viewBox="0 0 415 238" version="1.1" xmlns="http://www.w3.org/2000/svg" xmlns:xlink="http://www.w3.org/1999/xlink">
    <!-- Generator: Sketch 50.2 (55047) - http://www.bohemiancoding.com/sketch -->
    <title>illustration-1</title>
    <desc>Created with Sketch.</desc>
    <defs></defs>
    <g id="Screens" stroke="none" stroke-width="1" fill="none" fill-rule="evenodd">
        <g id="Home-[desktop]" transform="translate(-150.000000, -1100.000000)">
            <g id="section#what" transform="translate(0.000000, 940.000000)">
                <g id="illustration-1" transform="translate(150.000000, 160.000000)">
                    <polygon id="Fill-1" fill="#FFFFFF" points="215.87886 133 257.645377 133 270.496613 133 302.624703 119.875 302.624703 78.3125 264.070995 63 225.517287 78.246875 223.375414 91.4375"></polygon>
                    <polyline id="Fill-2" fill="#FFFFFF" points="285.866983 30 292.767221 30 292.767221 36.7114094 285.866983 40"></polyline>
                    <polyline id="Fill-3" fill="#FFFFFF" points="153.283848 153 138.004751 236 168.562945 153"></polyline>
                    <polyline id="Fill-4" fill="#FFFFFF" points="291.01478 153 299.667458 236 260.730404 166.105263 221.793349 236 232.609198 153"></polyline>
                    <polygon id="Fill-5" fill="#FFFFFF" points="339.608516 153 141.436615 153 124.204276 133 356.840855 133"></polygon>
                    <polyline id="Fill-6" fill="#FFFFFF" points="331.704276 153 346.983373 236 316.425178 153"></polyline>
                    <polygon id="Fill-7" fill="#FFFFFF" points="339.724681 133 324.669618 133 320.368171 105 344.026128 105"></polygon>
                    <polygon id="Fill-8" fill="#FFFFFF" points="286.852732 50.2307692 265.166271 59 243.47981 50.2307692 243.47981 13.9919231 265.166271 2 286.852732 13.9919231"></polygon>
                    <polygon id="Fill-9" fill="#FFFFFF" points="79.0673834 236 59.9231154 236 49.2874109 194 89.7030879 194"></polygon>
                    <polygon id="Fill-10" fill="#B083C8" opacity="0.25" points="260.152143 166.105263 298.68171 236 290.119584 153 243.02789 153 235.593824 210.656605"></polygon>
                    <polygon id="Fill-11" fill="#B083C8" opacity="0.25" points="334.168646 166 331.74958 153 316.425178 153 321.263311 166"></polygon>
                    <polygon id="Fill-12" fill="#B083C8" opacity="0.25" points="149.833729 166 152.252795 153 167.577197 153 162.739065 166"></polygon>
                    <polygon id="Fill-13" fill="#B083C8" opacity="0.25" points="69.9881235 194 90.6888361 194 79.7937242 236 69.9881235 236"></polygon>
                    <polygon id="Fill-14" fill="#B083C8" opacity="0.25" points="331.211401 133 339.754553 133 344.026128 105 331.211401 105"></polygon>
                    <polygon id="Fill-15" fill="#B083C8" opacity="0.25" points="243.47981 26 243.47981 22.7857143 265.166271 11 286.852732 22.7857143 286.852732 26"></polygon>
                    <path d="M283.537033,15.3868764 L264.180523,4.66176922 L244.824012,15.3868764 L244.824012,48.6321782 L264.180523,56.4750353 L283.537033,48.6321782 L283.537033,15.3868764 Z M286.486515,52.1298956 L264.979281,60.8441814 C264.466525,61.0519395 263.89452,61.0519395 263.381764,60.8441814 L241.87453,52.1298956 C241.05799,51.7990505 240.522565,50.9979707 240.522565,50.1071429 L240.522565,14.0953571 C240.522565,13.2990509 240.951474,12.5661868 241.641164,12.184042 L263.148397,0.267256317 C263.791518,-0.0890854391 264.569528,-0.0890854391 265.212648,0.267256317 L286.719882,12.184042 C287.409571,12.5661868 287.83848,13.2990509 287.83848,14.0953571 L287.83848,50.1071429 C287.83848,50.9979707 287.303055,51.7990505 286.486515,52.1298956 Z" id="Stroke-16" fill="#B083C8" fill-rule="nonzero"></path>
                    <path d="M255.308789,35.7142857 C255.308789,36.9766509 254.42612,38 253.337292,38 C252.248465,38 251.365796,36.9766509 251.365796,35.7142857 L251.365796,32.2857143 C251.365796,31.0233491 252.248465,30 253.337292,30 C254.42612,30 255.308789,31.0233491 255.308789,32.2857143 L255.308789,35.7142857 Z" id="Stroke-17" fill="#B083C8" fill-rule="nonzero"></path>
                    <path d="M273.052257,35.7142857 C273.052257,36.9766509 272.169588,38 271.08076,38 C269.991933,38 269.109264,36.9766509 269.109264,35.7142857 L269.109264,32.2857143 C269.109264,31.0233491 269.991933,30 271.08076,30 C272.169588,30 273.052257,31.0233491 273.052257,32.2857143 L273.052257,35.7142857 Z" id="Stroke-18" fill="#B083C8" fill-rule="nonzero"></path>
                    <polygon id="Fill-19" fill="#FFFFFF" points="155.735312 133 139.976247 76 210.963025 76 226.72209 133"></polygon>
                    <path d="M157.467325,130.642857 L223.720039,130.642857 L209.231013,78.3571429 L142.978299,78.3571429 L157.467325,130.642857 Z M153.782773,133.412276 L138.086329,76.7694189 C137.701152,75.3794539 138.728371,74 140.148593,74 L210.853299,74 C211.812814,74 212.655335,74.6486514 212.915564,75.5877239 L228.612009,132.230581 C228.997185,133.620546 227.969967,135 226.549744,135 L155.845038,135 C154.885523,135 154.043002,134.351349 153.782773,133.412276 Z" id="Stroke-20" fill="#B083C8" fill-rule="nonzero"></path>
                    <path d="M186.059976,97.8559639 L181.870546,94.8930009 L177.681116,97.8559639 L177.681116,102.144036 L181.870546,105.106999 L186.059976,102.144036 L186.059976,97.8559639 Z M189.31663,105.182334 L183.032485,109.626778 C182.328872,110.124407 181.412221,110.124407 180.708608,109.626778 L174.424463,105.182334 C173.841716,104.770188 173.491686,104.07634 173.491686,103.333333 L173.491686,96.6666667 C173.491686,95.9236596 173.841716,95.2298122 174.424463,94.817666 L180.708608,90.3732216 C181.412221,89.8755928 182.328872,89.8755928 183.032485,90.3732216 L189.31663,94.817666 C189.899377,95.2298122 190.249406,95.9236596 190.249406,96.6666667 L190.249406,103.333333 C190.249406,104.07634 189.899377,104.770188 189.31663,105.182334 Z" id="Stroke-22" fill="#FC6932" fill-rule="nonzero"></path>
                    <path d="M277.859876,66.0013337 C278.160681,66.0119763 278.464114,66.0864987 278.751035,66.2313794 C278.912785,66.3130552 279.060047,66.4124249 279.191672,66.5260176 L304.212216,76.383284 C305.038007,76.708618 305.581948,77.5141585 305.581948,78.4117647 L305.581948,119.764706 C305.581948,120.654675 305.047097,121.454982 304.231433,121.785508 L272.005177,134.844332 C271.751405,134.947166 271.480595,135 271.207275,135 L258.316772,135 C256.240394,135 255.371875,132.312341 257.046277,131.068413 L288.394611,107.779452 L288.394611,93.6470588 C288.394611,92.4450273 289.35649,91.4705882 290.543028,91.4705882 C291.729566,91.4705882 292.691445,92.4450273 292.691445,93.6470588 L292.691445,108.882353 C292.691445,109.575654 292.365399,110.227477 291.813524,110.63747 L264.87942,130.647059 L270.793527,130.647059 L301.285114,118.291164 L301.285114,79.9006166 L278.803917,71.0437691 L266.120595,96.7842275 C265.321822,98.4053152 263.03689,98.4052415 262.238219,96.7841023 L250.14313,71.2450927 L228.009435,79.9276651 L226.061569,91.8266654 C225.867448,93.0125011 224.761163,93.8143896 223.590612,93.6177336 C222.420061,93.4210776 221.628508,92.3003467 221.82263,91.1145111 L223.971047,77.9903934 C224.095343,77.2311005 224.60625,76.5947715 225.314732,76.3168493 L263.986239,61.1468493 C264.486373,60.9506575 265.040856,60.9510643 265.540709,61.1479898 L277.859876,66.0013337 Z M254.196132,69.6551875 L264.179593,90.8840142 L274.74381,69.4442213 L264.760354,65.5110702 L254.196132,69.6551875 Z" id="Combined-Shape" fill="#B083C8" fill-rule="nonzero"></path>
                    <path d="M284.661942,24 C285.856139,24 286.824228,24.8954305 286.824228,26 C286.824228,27.1045695 285.856139,28 284.661942,28 L223.955636,28 C222.761438,28 221.793349,27.1045695 221.793349,26 C221.793349,24.8954305 222.761438,24 223.955636,24 L284.661942,24 Z" id="Stroke-24" fill="#B083C8" fill-rule="nonzero"></path>
                    <path d="M267.197857,44.1674936 C268.280937,43.688938 269.51015,44.2708569 269.943382,45.4672457 C270.376613,46.6636345 269.849808,48.0214451 268.766728,48.5000006 L263.486336,50.8331271 C262.982774,51.0556243 262.421026,51.0556243 261.917465,50.8331271 L256.637072,48.5000006 C255.553993,48.0214451 255.027187,46.6636345 255.460419,45.4672457 C255.893651,44.2708569 257.122864,43.688938 258.205943,44.1674936 L262.7019,46.1540194 L267.197857,44.1674936 Z" id="Stroke-25" fill="#B083C8" fill-rule="nonzero"></path>
                    <path d="M290.40162,32.3275156 L286.064524,32.3275156 C284.866867,32.3275156 283.895975,31.3587682 283.895975,30.1637578 C283.895975,28.9687474 284.866867,28 286.064524,28 L292.570169,28 C293.767825,28 294.738717,28.9687474 294.738717,30.1637578 L294.738717,36.6550311 C294.738717,37.4808662 294.267597,38.2346845 293.524363,38.5980646 L287.018718,41.7787885 C285.943234,42.3046113 284.644175,41.8609492 284.117188,40.7878414 C283.590201,39.7147337 284.034846,38.4185443 285.110329,37.8927215 L290.40162,35.3057166 L290.40162,32.3275156 Z" id="Stroke-26" fill="#B083C8" fill-rule="nonzero"></path>
                    <path d="M223.595799,122 C224.777988,122 225.736342,122.895431 225.736342,124 C225.736342,125.104569 224.777988,126 223.595799,126 L153.96002,126 C152.777831,126 151.819477,125.104569 151.819477,124 C151.819477,122.895431 152.777831,122 153.96002,122 L223.595799,122 Z" id="Stroke-27" fill="#B083C8" fill-rule="nonzero"></path>
                    <polygon id="Fill-28" fill="#FFFFFF" points="226.211409 133 260.23753 133 255.895802 124 223.764846 124"></polygon>
                    <path d="M226.366488,135 C225.403881,135 224.558648,134.354874 224.297597,133.420915 L221.875178,124.754248 C221.488795,123.371887 222.519306,122 223.944069,122 L255.757933,122 C256.57208,122 257.316352,122.463672 257.68045,123.197704 L261.97933,131.864371 C262.693913,133.30499 261.654668,135 260.056813,135 L226.366488,135 Z M256.578946,131.666667 L254.429505,126.333333 L226.782799,126.333333 L227.994009,131.666667 L256.578946,131.666667 Z" id="Stroke-29" fill="#B083C8" fill-rule="nonzero"></path>
                    <path d="M351.868344,135.363636 L129.176787,135.363636 L142.55859,150.636364 L338.486541,150.636364 L351.868344,135.363636 Z M339.452324,155 L141.592807,155 C140.978501,155 140.393516,154.733496 139.985394,154.267703 L122.780218,134.631339 C121.547369,133.224282 122.531949,131 124.387632,131 L356.657499,131 C358.513182,131 359.497761,133.224282 358.264912,134.631339 L341.059737,154.267703 C340.651614,154.733496 340.06663,155 339.452324,155 Z" id="Stroke-32" fill="#B083C8" fill-rule="nonzero"></path>
                    <path d="M165.36929,152.42356 C165.780906,151.296501 167.02029,150.719451 168.137533,151.134683 C169.254775,151.549916 169.826799,152.800191 169.415183,153.92725 L139.232992,236.570187 C138.32071,239.068137 134.611778,238.042385 135.089847,235.424347 L150.180943,152.781411 C150.396645,151.600169 151.520751,150.81898 152.691704,151.036577 C153.862657,151.254175 154.637041,152.388158 154.421339,153.5694 L143.891862,211.231673 L165.36929,152.42356 Z" id="Stroke-33" fill="#B083C8" fill-rule="nonzero"></path>
                    <path d="M329.581036,153.5694 C329.365334,152.388158 330.139718,151.254175 331.310671,151.036577 C332.481624,150.81898 333.60573,151.600169 333.821432,152.781411 L348.912528,235.424347 C349.390597,238.042385 345.681665,239.068137 344.769383,236.570187 L314.587192,153.92725 C314.175576,152.800191 314.7476,151.549916 315.864842,151.134683 C316.982085,150.719451 318.221469,151.296501 318.633085,152.42356 L340.110513,211.231673 L329.581036,153.5694 Z" id="Stroke-34" fill="#B083C8" fill-rule="nonzero"></path>
                    <path d="M406.325416,238 C405.127706,238 404.15677,237.104569 404.15677,236 C404.15677,234.895431 405.127706,234 406.325416,234 L412.831354,234 C414.029064,234 415,234.895431 415,236 C415,237.104569 414.029064,238 412.831354,238 L406.325416,238 Z" id="Stroke-36" fill="#B083C8" fill-rule="nonzero"></path>
                    <path d="M2.16864608,238 C0.970935923,238 0,237.104569 0,236 C0,234.895431 0.970935923,234 2.16864608,234 L8.67458432,234 C9.87229448,234 10.8432304,234.895431 10.8432304,236 C10.8432304,237.104569 9.87229448,238 8.67458432,238 L2.16864608,238 Z" id="Stroke-37" fill="#B083C8" fill-rule="nonzero"></path>
                    <path d="M330.585844,85.8443651 C331.419921,86.7035185 331.419921,88.0964815 330.585844,88.9556349 L326.314268,93.3556349 C325.480191,94.2147884 324.127885,94.2147884 323.293808,93.3556349 C322.459731,92.4964815 322.459731,91.1035185 323.293808,90.2443651 L326.055154,87.4 L319.022232,80.1556349 C318.188155,79.2964815 318.188155,77.9035185 319.022232,77.0443651 L323.293808,72.6443651 C324.127885,71.7852116 325.480191,71.7852116 326.314268,72.6443651 C327.148345,73.5035185 327.148345,74.8964815 326.314268,75.7556349 L323.552922,78.6 L330.585844,85.8443651 Z M345.372067,85.8443651 C346.206144,86.7035185 346.206144,88.0964815 345.372067,88.9556349 L341.100491,93.3556349 C340.266414,94.2147884 338.914108,94.2147884 338.080031,93.3556349 C337.245954,92.4964815 337.245954,91.1035185 338.080031,90.2443651 L340.841377,87.4 L333.808456,80.1556349 C332.974379,79.2964815 332.974379,77.9035185 333.808456,77.0443651 L338.080031,72.6443651 C338.914108,71.7852116 340.266414,71.7852116 341.100491,72.6443651 C341.934568,73.5035185 341.934568,74.8964815 341.100491,75.7556349 L338.339146,78.6 L345.372067,85.8443651 Z" id="Combined-Shape" fill="#37A1FC" fill-rule="nonzero"></path>
                    <path d="M341.399403,107.4 L322.994896,107.4 L326.5878,131.6 L337.806499,131.6 L341.399403,107.4 Z M339.627929,135 L324.76637,135 C323.718479,135 322.827317,134.207756 322.667978,133.134526 L318.421818,105.534526 C318.223961,104.201857 319.219006,103 320.52021,103 L343.874089,103 C345.175294,103 346.170339,104.201857 345.972481,105.534526 L341.726321,133.134526 C341.566982,134.207756 340.67582,135 339.627929,135 Z" id="Stroke-41" fill="#B083C8" fill-rule="nonzero"></path>
                    <path d="M87.6991735,196.380952 L52.2770735,196.380952 L61.9364199,233.619048 L78.0398271,233.619048 L87.6991735,196.380952 Z M69.0023753,192 L69.0023753,78.1818182 C69.0023753,76.9768333 69.8850443,76 70.9738717,76 C72.0626992,76 72.9453682,76.9768333 72.9453682,78.1818182 L72.9453682,192 L90.5000298,192 C91.915726,192 92.948372,193.358989 92.5880868,194.747938 L81.7923467,236.366985 C81.5427304,237.32929 80.685126,238 79.7042896,238 L60.2719574,238 C59.291121,238 58.4335166,237.32929 58.1839003,236.366985 L47.3881602,194.747938 C47.027875,193.358989 48.060521,192 49.4762173,192 L69.0023753,192 Z" id="Combined-Shape" fill="#B083C8" fill-rule="nonzero"></path>
                    <path d="M220.042937,234 L230.607831,152.891357 C230.762947,151.700498 231.844371,150.86214 233.023257,151.018832 C234.202143,151.175524 235.032072,152.26793 234.876956,153.458789 L225.566423,224.937466 L258.854418,165.157797 C259.677504,163.679673 261.784269,163.679673 262.607355,165.157797 L296.252267,225.57843 L288.731209,153.402744 C288.606734,152.20822 289.464444,151.137936 290.646958,151.012196 C291.829473,150.886457 292.888997,151.752878 293.013472,152.947402 L301.459547,234 L395.105809,234 C396.29362,234 397.256532,234.895431 397.256532,236 C397.256532,237.104569 396.29362,238 395.105809,238 L222.012759,238 C222.012745,238 222.012745,238 222.012745,238 L20.8799395,238 C19.6921278,238 18.7292162,237.104569 18.7292162,236 C18.7292162,234.895431 19.6921278,234 20.8799395,234 L220.042937,234 Z M225.460388,234 L296.001385,234 L260.730887,170.660086 L225.460388,234 Z" id="Combined-Shape" fill="#B083C8" fill-rule="nonzero"></path>
                    <polygon id="Fill-43" fill="#FFFFFF" points="79.8456057 157 88.2244656 157 96.6033254 140 79.8456057 148.5"></polygon>
                    <path d="M79.0560807,159 C77.8588822,159 76.888361,158.015447 76.888361,156.80094 L76.888361,148.004699 C76.888361,147.171756 77.3522582,146.410303 78.086647,146.0378 L95.4284043,137.241559 C97.2916798,136.296452 99.2683432,138.301694 98.3367055,140.191908 L89.6658268,157.784389 C89.2986324,158.529396 88.548031,159 87.7269594,159 L79.0560807,159 Z M81.2238004,154.60188 L86.3872349,154.60188 L91.5506695,144.125706 L81.2238004,149.363793 L81.2238004,154.60188 Z" id="Stroke-44" fill="#72C87C" fill-rule="nonzero"></path>
                    <polygon id="Fill-45" fill="#FFFFFF" points="60.1306413 173 51.5277478 173 36.4726841 151 60.1306413 164.2"></polygon>
                    <path d="M57.8580902,169.669036 L57.8580902,164.458091 L43.5650697,156.502235 L52.5968623,169.669036 L57.8580902,169.669036 Z M59.980114,174 L51.4920188,174 C50.7995731,174 50.1506806,173.655231 49.7535891,173.07634 L34.8994226,151.421519 C33.6133891,149.546703 35.6852394,147.182774 37.6539878,148.278629 L60.9962496,161.271522 C61.6779727,161.650986 62.1021378,162.380144 62.1021378,163.172589 L62.1021378,171.834518 C62.1021378,173.030481 61.1520754,174 59.980114,174 Z" id="Stroke-46" fill="#72C87C" fill-rule="nonzero"></path>
                    <polygon id="Fill-47" fill="#FFFFFF" points="81.8171021 116 90.4199957 116 105.475059 94 81.8171021 107.2"></polygon>
                    <path d="M81.9676295,118 C80.7956681,118 79.8456057,117.030481 79.8456057,115.834518 L79.8456057,107.172589 C79.8456057,106.380144 80.2697708,105.650986 80.9514939,105.271522 L104.293756,92.2786292 C106.262504,91.1827741 108.334354,93.5467032 107.048321,95.4215189 L92.1941543,117.07634 C91.7970628,117.655231 91.1481703,118 90.4557247,118 L81.9676295,118 Z M84.0896533,113.669036 L89.3508812,113.669036 L98.3826738,100.502235 L84.0896533,108.458091 L84.0896533,113.669036 Z" id="Stroke-48" fill="#72C87C" fill-rule="nonzero"></path>
                    <polygon id="Fill-49" fill="#FFFFFF" points="51.3205166 137 27.6009501 111 62.1021378 126.166667 62.1021378 137"></polygon>
                    <path d="M52.203087,135.5734 L59.8037287,135.5734 L59.8037287,128.167732 L36.1812721,117.453645 L52.203087,135.5734 Z M49.6901283,139.282281 L26.2056478,112.722679 C24.6460678,110.958883 26.520665,108.240324 28.6351664,109.199367 L62.7944107,124.692468 C63.5715065,125.044924 64.0736342,125.84086 64.0736342,126.720199 L64.0736342,137.7867 C64.0736342,139.009072 63.1177833,140 61.9386814,140 L51.2639176,140 C50.6654767,140 50.0945095,139.739613 49.6901283,139.282281 Z" id="Stroke-50" fill="#72C87C" fill-rule="nonzero"></path>
                    <polygon id="Fill-52" fill="#FFFFFF" points="62.1021378 89.2307692 40.415677 72 51.2589074 95.6923077 62.1021378 100"></polygon>
                    <path d="M63.2724497,88.0874346 C63.7788463,88.5047231 64.0736342,89.1364931 64.0736342,89.8044806 L64.0736342,100.79894 C64.0736342,102.354578 62.5482949,103.418309 61.1460496,102.840559 L50.4722693,98.4427759 C49.9615041,98.2323317 49.549325,97.8269124 49.3216875,97.311064 L38.6479072,73.1232541 C37.7185202,71.0171742 40.1710851,69.0511045 41.9248891,70.4963001 L63.2724497,88.0874346 Z M59.8041221,90.8613227 L46.2289552,79.6749117 L52.8538025,94.6874512 L59.8041221,97.551104 L59.8041221,90.8613227 Z" id="Stroke-53" fill="#72C87C" fill-rule="nonzero"></path>
                    <path d="M55.9257313,215.365398 C55.0836343,216.211534 53.7183253,216.211534 52.8762283,215.365398 C52.0341313,214.519262 52.0341313,213.147405 52.8762283,212.301269 L61.5015252,203.634602 C62.3436222,202.788466 63.7089312,202.788466 64.5510282,203.634602 L69.4952494,208.602537 L74.4394706,203.634602 C75.2815676,202.788466 76.6468766,202.788466 77.4889736,203.634602 L86.1142705,212.301269 C86.9563675,213.147405 86.9563675,214.519262 86.1142705,215.365398 C85.2721735,216.211534 83.9068645,216.211534 83.0647675,215.365398 L75.9642221,208.230796 L71.0200009,213.198731 C70.1779039,214.044867 68.8125949,214.044867 67.9704979,213.198731 L63.0262767,208.230796 L55.9257313,215.365398 Z" id="Stroke-54" fill="#B083C8" fill-rule="nonzero"></path>
                </g>
            </g>
        </g>
    </g>
</svg>