<svg height="238" viewBox="0 0 415 238" width="415" xmlns="http://www.w3.org/2000/svg"><g fill="none"><g fill="#fff"><path d="m215.879 133h54.618l32.128-13.125v-41.563l-38.554-15.313-38.554 15.247-2.142 13.191z"/><path d="m285.867 30h6.9v6.711l-6.9 3.289"/><path d="m153.284 153-15.279 83 30.558-83"/><path d="m291.015 153 8.653 83-38.937-69.895-38.937 69.895 10.816-83"/><path d="m339.609 153h-198.172l-17.232-20h232.637z"/><path d="m331.704 153 15.279 83-30.558-83"/><path d="m339.725 133h-15.055l-4.301-28h23.658z"/><path d="m286.853 50.231-21.686 8.769-21.686-8.769v-36.239l21.686-11.992 21.686 11.992z"/><path d="m79.067 236h-19.144l-10.636-42h40.416z"/></g><path d="m260.152 166.105 38.53 69.895-8.562-83h-47.092l-7.434 57.657z" fill="#b083c8" opacity=".25"/><path d="m334.169 166-2.419-13h-15.324l4.838 13z" fill="#b083c8" opacity=".25"/><path d="m149.834 166 2.419-13h15.324l-4.838 13z" fill="#b083c8" opacity=".25"/><path d="m69.988 194h20.701l-10.895 42h-9.806z" fill="#b083c8" opacity=".25"/><path d="m331.211 133h8.543l4.272-28h-12.815z" fill="#b083c8" opacity=".25"/><path d="m243.48 26v-3.214l21.686-11.786 21.686 11.786v3.214z" fill="#b083c8" opacity=".25"/><path d="m283.537 15.387-19.357-10.725-19.357 10.725v33.245l19.357 7.843 19.357-7.843zm2.949 36.743-21.507 8.714c-.513.208-1.085.208-1.598 0l-21.507-8.714c-.817-.331-1.352-1.132-1.352-2.023v-36.012c0-.796.429-1.529 1.119-1.911l21.507-11.917c.643-.356 1.421-.356 2.064 0l21.507 11.917c.69.382 1.119 1.115 1.119 1.911v36.012c0 .891-.535 1.692-1.352 2.023z" fill="#b083c8"/><path d="m255.309 35.714c0 1.262-.883 2.286-1.971 2.286-1.089 0-1.971-1.023-1.971-2.286v-3.429c0-1.262.883-2.286 1.971-2.286 1.089 0 1.971 1.023 1.971 2.286z" fill="#b083c8"/><path d="m273.052 35.714c0 1.262-.883 2.286-1.971 2.286-1.089 0-1.971-1.023-1.971-2.286v-3.429c0-1.262.883-2.286 1.971-2.286 1.089 0 1.971 1.023 1.971 2.286z" fill="#b083c8"/><path d="m155.735 133-15.759-57h70.987l15.759 57z" fill="#fff"/><path d="m157.467 130.643h66.253l-14.489-52.286h-66.253zm-3.685 2.769-15.696-56.643c-.385-1.39.642-2.769 2.062-2.769h70.705c.96 0 1.802.649 2.062 1.588l15.696 56.643c.385 1.39-.642 2.769-2.062 2.769h-70.705c-.96 0-1.802-.649-2.062-1.588z" fill="#b083c8"/><path d="m186.06 97.856-4.189-2.963-4.189 2.963v4.288l4.189 2.963 4.189-2.963zm3.257 7.326-6.284 4.444c-.704.498-1.62.498-2.324 0l-6.284-4.444c-.583-.412-.933-1.106-.933-1.849v-6.667c0-.743.35-1.437.933-1.849l6.284-4.444c.704-.498 1.62-.498 2.324 0l6.284 4.444c.583.412.933 1.106.933 1.849v6.667c0 .743-.35 1.437-.933 1.849z" fill="#fc6932"/><path d="m277.86 66.001c.301.011.604.085.891.23.162.082.309.181.441.295l25.021 9.857c.826.325 1.37 1.131 1.37 2.028v41.353c0 .89-.535 1.69-1.351 2.021l-32.226 13.059c-.254.103-.525.156-.798.156h-12.891c-2.076 0-2.945-2.688-1.27-3.932l31.348-23.289v-14.132c0-1.202.962-2.176 2.148-2.176 1.187 0 2.148.974 2.148 2.176v15.235c0 .693-.326 1.345-.878 1.755l-26.934 20.01h5.914l30.492-12.356v-38.391l-22.481-8.857-12.683 25.74c-.799 1.621-3.084 1.621-3.882 0l-12.095-25.539-22.134 8.683-1.948 11.899c-.194 1.186-1.3 1.988-2.471 1.791s-1.962-1.317-1.768-2.503l2.148-13.124c.124-.759.635-1.396 1.344-1.674l38.672-15.17c.5-.196 1.055-.196 1.554.001l12.319 4.853zm-23.664 3.654 9.983 21.229 10.564-21.44-9.983-3.933z" fill="#b083c8"/><path d="m284.662 24c1.194 0 2.162.895 2.162 2s-.968 2-2.162 2h-60.706c-1.194 0-2.162-.895-2.162-2s.968-2 2.162-2z" fill="#b083c8"/><path d="m267.198 44.167c1.083-.479 2.312.103 2.746 1.3.433 1.196-.094 2.554-1.177 3.033l-5.28 2.333c-.504.222-1.065.222-1.569 0l-5.28-2.333c-1.083-.479-1.61-1.836-1.177-3.033.433-1.196 1.662-1.778 2.746-1.3l4.496 1.987 4.496-1.987z" fill="#b083c8"/><path d="m290.402 32.328h-4.337c-1.198 0-2.169-.969-2.169-2.164s.971-2.164 2.169-2.164h6.506c1.198 0 2.169.969 2.169 2.164v6.491c0 .826-.471 1.58-1.214 1.943l-6.506 3.181c-1.075.526-2.375.082-2.902-.991s-.082-2.369.993-2.895l5.291-2.587z" fill="#b083c8"/><path d="m223.596 122c1.182 0 2.141.895 2.141 2s-.958 2-2.141 2h-69.636c-1.182 0-2.141-.895-2.141-2s.958-2 2.141-2z" fill="#b083c8"/><path d="m226.211 133h34.026l-4.342-9h-32.131z" fill="#fff"/><path d="m226.366 135c-.963 0-1.808-.645-2.069-1.579l-2.422-8.667c-.386-1.382.644-2.754 2.069-2.754h31.814c.814 0 1.558.464 1.923 1.198l4.299 8.667c.715 1.441-.325 3.136-1.923 3.136h-33.69zm30.212-3.333-2.149-5.333h-27.647l1.211 5.333z" fill="#b083c8"/><path d="m351.868 135.364h-222.692l13.382 15.273h195.928zm-12.416 19.636h-197.86c-.614 0-1.199-.267-1.607-.732l-17.205-19.636c-1.233-1.407-.248-3.631 1.607-3.631h232.27c1.856 0 2.84 2.224 1.607 3.631l-17.205 19.636c-.408.466-.993.732-1.607.732z" fill="#b083c8"/><path d="m165.369 152.424c.412-1.127 1.651-1.704 2.768-1.289s1.689 1.666 1.278 2.793l-30.182 82.643c-.912 2.498-4.621 1.472-4.143-1.146l15.091-82.643c.216-1.181 1.34-1.962 2.511-1.745 1.171.218 1.945 1.352 1.73 2.533l-10.529 57.662 21.477-58.808z" fill="#b083c8"/><path d="m329.581 153.569c-.216-1.181.559-2.315 1.73-2.533s2.295.564 2.511 1.745l15.091 82.643c.478 2.618-3.231 3.644-4.143 1.146l-30.182-82.643c-.412-1.127.16-2.377 1.278-2.793 1.117-.415 2.357.162 2.768 1.289l21.477 58.808-10.529-57.662z" fill="#b083c8"/><path d="m406.325 238c-1.198 0-2.169-.895-2.169-2s.971-2 2.169-2h6.506c1.198 0 2.169.895 2.169 2s-.971 2-2.169 2z" fill="#b083c8"/><path d="m2.169 238c-1.198 0-2.169-.895-2.169-2s.971-2 2.169-2h6.506c1.198 0 2.169.895 2.169 2s-.971 2-2.169 2z" fill="#b083c8"/><path d="m330.586 85.844c.834.859.834 2.252 0 3.111l-4.272 4.4c-.834.859-2.186.859-3.02 0s-.834-2.252 0-3.111l2.761-2.844-7.033-7.244c-.834-.859-.834-2.252 0-3.111l4.272-4.4c.834-.859 2.186-.859 3.02 0s.834 2.252 0 3.111l-2.761 2.844zm14.786 0c.834.859.834 2.252 0 3.111l-4.272 4.4c-.834.859-2.186.859-3.02 0s-.834-2.252 0-3.111l2.761-2.844-7.033-7.244c-.834-.859-.834-2.252 0-3.111l4.272-4.4c.834-.859 2.186-.859 3.02 0s.834 2.252 0 3.111l-2.761 2.844z" fill="#37a1fc"/><path d="m341.399 107.4h-18.405l3.593 24.2h11.219zm-1.771 27.6h-14.862c-1.048 0-1.939-.792-2.098-1.865l-4.246-27.6c-.198-1.333.797-2.535 2.098-2.535h23.354c1.301 0 2.296 1.202 2.098 2.535l-4.246 27.6c-.159 1.073-1.051 1.865-2.098 1.865z" fill="#b083c8"/><path d="m87.699 196.381h-35.422l9.659 37.238h16.103l9.659-37.238zm-18.697-4.381v-113.818c0-1.205.883-2.182 1.971-2.182 1.089 0 1.971.977 1.971 2.182v113.818h17.555c1.416 0 2.448 1.359 2.088 2.748l-10.796 41.619c-.25.962-1.107 1.633-2.088 1.633h-19.432c-.981 0-1.838-.671-2.088-1.633l-10.796-41.619c-.36-1.389.672-2.748 2.088-2.748h19.526zm151.041 42 10.565-81.109c.155-1.191 1.237-2.029 2.415-1.873 1.179.157 2.009 1.249 1.854 2.44l-9.311 71.479 33.288-59.78c.823-1.478 2.93-1.478 3.753 0l33.645 60.421-7.521-72.176c-.124-1.195.733-2.265 1.916-2.391s2.242.741 2.367 1.935l8.446 81.053h93.646c1.188 0 2.151.895 2.151 2s-.963 2-2.151 2h-374.226c-1.188 0-2.151-.895-2.151-2s.963-2 2.151-2h199.163zm5.417 0h70.541l-35.27-63.34-35.27 63.34z" fill="#b083c8"/><path d="m79.846 157h8.379l8.379-17-16.758 8.5z" fill="#fff"/><path d="m79.056 159c-1.197 0-2.168-.985-2.168-2.199v-8.796c0-.833.464-1.594 1.198-1.967l17.342-8.796c1.863-.945 3.84 1.06 2.908 2.95l-8.671 17.592c-.367.745-1.118 1.216-1.939 1.216h-8.671zm2.168-4.398h5.163l5.163-10.476-10.327 5.238v5.238z" fill="#72c87c"/><path d="m60.131 173h-8.603l-15.055-22 23.658 13.2z" fill="#fff"/><path d="m57.858 169.669v-5.211l-14.293-7.956 9.032 13.167zm2.122 4.331h-8.488c-.692 0-1.341-.345-1.738-.924l-14.854-21.655c-1.286-1.875.786-4.239 2.755-3.143l23.342 12.993c.682.379 1.106 1.109 1.106 1.901v8.662c0 1.196-.95 2.165-2.122 2.165z" fill="#72c87c"/><path d="m81.817 116h8.603l15.055-22-23.658 13.2z" fill="#fff"/><path d="m81.968 118c-1.172 0-2.122-.97-2.122-2.165v-8.662c0-.792.424-1.522 1.106-1.901l23.342-12.993c1.969-1.096 4.041 1.268 2.755 3.143l-14.854 21.655c-.397.579-1.046.924-1.738.924h-8.488zm2.122-4.331h5.261l9.032-13.167-14.293 7.956z" fill="#72c87c"/><path d="m51.321 137-23.72-26 34.501 15.167v10.833z" fill="#fff"/><path d="m52.203 135.573h7.601v-7.406l-23.622-10.714 16.022 18.12zm-2.513 3.709-23.484-26.56c-1.56-1.764.315-4.482 2.43-3.523l34.159 15.493c.777.352 1.279 1.148 1.279 2.028v11.067c0 1.222-.956 2.213-2.135 2.213h-10.675c-.598 0-1.169-.26-1.574-.718z" fill="#72c87c"/><path d="m62.102 89.231-21.686-17.231 10.843 23.692 10.843 4.308z" fill="#fff"/><path d="m63.272 88.087c.506.417.801 1.049.801 1.717v10.994c0 1.556-1.525 2.619-2.928 2.042l-10.674-4.398c-.511-.21-.923-.616-1.151-1.132l-10.674-24.188c-.929-2.106 1.523-4.072 3.277-2.627l21.348 17.591zm-3.468 2.774-13.575-11.186 6.625 15.013 6.95 2.864v-6.69z" fill="#72c87c"/><path d="m55.926 215.365c-.842.846-2.207.846-3.05 0-.842-.846-.842-2.218 0-3.064l8.625-8.667c.842-.846 2.207-.846 3.05 0l4.944 4.968 4.944-4.968c.842-.846 2.207-.846 3.05 0l8.625 8.667c.842.846.842 2.218 0 3.064s-2.207.846-3.05 0l-7.101-7.135-4.944 4.968c-.842.846-2.207.846-3.05 0l-4.944-4.968-7.101 7.135z" fill="#b083c8"/></g></svg>