<svg width="416" height="344" viewBox="0 0 416 344" xmlns="http://www.w3.org/2000/svg"><title>illustration-6</title><desc>Created with Sketch.</desc><g fill="none"><path fill="#fff" d="M21.699 198.633h74.937v-74.937h-74.937z"/><path d="M21.699 200.714c-1.15 0-2.082-.932-2.082-2.082v-74.937c0-1.15.932-2.082 2.082-2.082h74.937c1.15 0 2.082.932 2.082 2.082v74.937c0 1.15-.932 2.082-2.082 2.082h-74.937zm2.082-4.163h70.774v-70.774h-70.774v70.774z" fill="#37A1FC" fill-rule="nonzero"/><path fill="#fff" d="M251.683 191.098l-17.662-17.662 44.157-44.157 14.719 2.943 2.943 14.719z"/><path d="M293.58 146.258l-2.453-12.266-12.266-2.453-41.897 41.897 14.718 14.718 41.897-41.897zm-43.369 46.313l-17.662-17.662c-.813-.813-.813-2.131 0-2.944l44.157-44.157c.492-.492 1.198-.706 1.88-.569l14.719 2.943c.824.165 1.468.809 1.633 1.633l2.943 14.719c.136.682-.077 1.388-.569 1.88l-44.157 44.157c-.813.813-2.131.813-2.944 0z" fill="#37A1FC" fill-rule="nonzero"/><path fill="#fff" d="M167.409 252.754h91.59v-167.567h-91.59z"/><path d="M154.92 35.57c.01 1.57-1.657 2.586-3.048 1.857l-21.511-11.274c-1.475-.773-1.49-2.879-.027-3.673l21.369-11.596c1.382-.75 3.065.244 3.074 1.817l.142 22.87zm-4.283-19.371l-14.886 8.078 14.985 7.854-.099-15.932z" fill="#72C87C" fill-rule="nonzero"/><path d="M350.358 97.298c-.5 1.489-2.405 1.909-3.485.769l-10.285-10.86c-1.145-1.209-.477-3.206 1.164-3.484l14.767-2.496c1.551-.262 2.821 1.224 2.32 2.715l-4.482 13.355zm-.57-11.386l-7.493 1.266 5.219 5.511 2.274-6.777z" fill="#B083C8" fill-rule="nonzero"/><path d="M108.699 283.423c-.5 1.489-2.405 1.909-3.485.769l-10.285-10.86c-1.145-1.209-.477-3.206 1.164-3.484l14.767-2.496c1.551-.262 2.821 1.224 2.32 2.715l-4.482 13.355zm-.57-11.386l-7.493 1.266 5.219 5.511 2.274-6.777z" fill="#72C87C" fill-rule="nonzero"/><path d="M221.79 50.381c-.759 1.375-2.709 1.447-3.566.131l-8.17-12.531c-.91-1.395.106-3.24 1.771-3.218l14.975.198c1.572.021 2.555 1.71 1.795 3.087l-6.805 12.333zm1.482-11.303l-7.599-.1 4.146 6.359 3.453-6.258z" fill="#B083C8" fill-rule="nonzero"/><path d="M84.148 57.299c-.886.265-1.841-.088-2.343-.864l-5.651-8.741c-.624-.965-.348-2.254.618-2.878.965-.624 2.254-.348 2.878.618l4.804 7.43 8.477-2.53c.887-.265 1.841.088 2.344.865l4.802 7.429 8.477-2.53c.886-.265 1.841.088 2.343.864l5.651 8.741c.624.965.348 2.254-.618 2.878-.965.624-2.254.348-2.878-.618l-4.804-7.43-8.477 2.53c-.887.265-1.841-.088-2.344-.865l-4.802-7.429-8.477 2.53z" fill="#B083C8" fill-rule="nonzero"/><path d="M313.339 271.475c-.924.042-1.766-.53-2.065-1.406l-3.368-9.848c-.372-1.088.208-2.271 1.296-2.643 1.088-.372 2.271.208 2.643 1.296l2.863 8.371 8.838-.405c.924-.042 1.766.531 2.065 1.406l2.861 8.371 8.838-.403c.924-.042 1.765.531 2.064 1.406l3.368 9.848c.372 1.088-.208 2.271-1.296 2.643-1.088.372-2.271-.208-2.643-1.296l-2.863-8.371-8.838.403c-.924.042-1.765-.531-2.065-1.406l-2.861-8.37-8.838.405z" fill="#72C87C" fill-rule="nonzero"/><path d="M55.195 257.845c-.412.828-1.322 1.285-2.232 1.122l-10.243-1.842c-1.131-.203-1.884-1.286-1.68-2.417.203-1.131 1.286-1.884 2.417-1.68l8.707 1.566 3.94-7.921c.412-.828 1.321-1.285 2.232-1.122l8.709 1.566 3.94-7.919c.412-.828 1.322-1.285 2.232-1.121l10.243 1.842c1.131.203 1.884 1.286 1.68 2.417-.203 1.131-1.286 1.884-2.417 1.68l-8.707-1.566-3.94 7.919c-.412.828-1.321 1.285-2.232 1.121l-8.709-1.566-3.94 7.921z" fill="#B083C8" fill-rule="nonzero"/><path d="M336.087 45.433c.624-.965 1.913-1.242 2.878-.618.965.624 1.242 1.913.618 2.878l-5.651 8.741c-.502.777-1.457 1.129-2.343.864l-8.477-2.53-4.802 7.429c-.502.777-1.457 1.129-2.344.865l-8.477-2.53-4.804 7.43c-.624.965-1.913 1.242-2.878.618-.965-.624-1.242-1.913-.618-2.878l5.651-8.741c.502-.777 1.457-1.129 2.343-.864l8.477 2.53 4.802-7.429c.502-.777 1.457-1.129 2.344-.865l8.477 2.53 4.804-7.43z" fill="#72C87C" fill-rule="nonzero"/><path d="M217.367 232.39l-4.163-2.775-4.163 2.775v4.017l4.163 2.775 4.163-2.775v-4.017zm3.236 6.863l-6.245 4.163c-.699.466-1.61.466-2.309 0l-6.245-4.163c-.579-.386-.927-1.036-.927-1.732v-6.245c0-.696.348-1.346.927-1.732l6.245-4.163c.699-.466 1.61-.466 2.309 0l6.245 4.163c.579.386.927 1.036.927 1.732v6.245c0 .696-.348 1.346-.927 1.732z" fill="#FC6932" fill-rule="nonzero"/><path d="M275.851 11.112l-.981-4.907-4.905-.981-2.84 2.84.981 4.907 4.905.981 2.84-2.84zm-2.564 7.14l-7.358-1.472c-.824-.165-1.468-.809-1.633-1.633l-1.472-7.36c-.136-.682.077-1.388.569-1.88l4.415-4.415c.492-.492 1.198-.706 1.88-.569l7.358 1.472c.824.165 1.468.809 1.633 1.633l1.472 7.36c.136.682-.077 1.388-.569 1.88l-4.415 4.415c-.492.492-1.198.706-1.88.569z" fill="#B083C8" fill-rule="nonzero"/><path d="M361.575 255.981l-.981-4.907-4.905-.981-2.841 2.84.981 4.907 4.907.981 2.84-2.84zm-2.564 7.14l-7.36-1.472c-.824-.165-1.468-.809-1.633-1.633l-1.472-7.36c-.136-.683.077-1.388.57-1.88l4.417-4.415c.492-.492 1.197-.705 1.88-.569l7.358 1.472c.824.165 1.468.809 1.633 1.633l1.472 7.36c.136.682-.077 1.388-.569 1.88l-4.415 4.415c-.492.492-1.198.706-1.88.569z" fill="#B083C8" fill-rule="nonzero"/><path d="M21.699 343.365c-1.15 0-2.082-.932-2.082-2.082s.932-2.082 2.082-2.082h362.195c1.15 0 2.082.932 2.082 2.082s-.932 2.082-2.082 2.082h-362.195zm372.603 0c-1.15 0-2.082-.932-2.082-2.082s.932-2.082 2.082-2.082h6.245c1.15 0 2.082.932 2.082 2.082s-.932 2.082-2.082 2.082h-6.245zm-391.337 0c-1.15 0-2.082-.932-2.082-2.082s.932-2.082 2.082-2.082h6.245c1.15 0 2.082.932 2.082 2.082s-.932 2.082-2.082 2.082h-6.245z" fill="#37A1FC" fill-rule="nonzero"/><path fill="#37A1FC" opacity=".25" d="M258.999 85.187v132.18h-91.59z"/><path d="M167.409 254.836c-1.15 0-2.082-.932-2.082-2.082v-167.567c0-1.15.932-2.082 2.082-2.082h91.59c1.15 0 2.082.932 2.082 2.082v167.567c0 1.15-.932 2.082-2.082 2.082h-91.59zm2.082-4.163h87.426v-163.404h-87.426v163.404z" fill="#37A1FC" fill-rule="nonzero"/><path d="M167.409 219.449c-1.15 0-2.082-.932-2.082-2.082s.932-2.082 2.082-2.082h91.59c1.15 0 2.082.932 2.082 2.082s-.932 2.082-2.082 2.082h-91.59z" fill="#37A1FC" fill-rule="nonzero"/><path fill="#fff" d="M238.183 341.283v-51.722l22.897-33.305-2.082-3.501h-68.692v-13.151l-22.897-14.571v-42.672l-12.489-9.367-12.489 10.408v62.447l24.979 33.305v62.13z"/><path fill="#fff" d="M277.733 189.266l4.163 12.489-4.163 12.489h-47.876l-6.245-12.489 6.245-12.489z"/><path d="M231.143 191.347l-5.204 10.408 5.204 10.408h45.09l3.469-10.408-3.469-10.408h-45.09zm48.565-2.74l4.163 12.489c.142.427.142.889 0 1.317l-4.163 12.489c-.283.85-1.079 1.423-1.975 1.423h-47.876c-.788 0-1.509-.445-1.862-1.151l-6.245-12.489c-.293-.586-.293-1.276 0-1.862l6.245-12.489c.353-.705 1.073-1.151 1.862-1.151h47.876c.896 0 1.691.573 1.975 1.423z" fill="#37A1FC" fill-rule="nonzero"/><path fill="#fff" d="M273.57 214.245l4.163 12.489-4.163 12.489h-39.55l-6.245-12.489 6.245-12.489z"/><path d="M235.306 216.326l-5.204 10.408 5.204 10.408h36.763l3.469-10.408-3.469-10.408h-36.763zm40.238-2.74l4.163 12.489c.142.427.142.889 0 1.317l-4.163 12.489c-.283.85-1.079 1.423-1.975 1.423h-39.55c-.788 0-1.509-.445-1.862-1.151l-6.245-12.489c-.293-.586-.293-1.276 0-1.862l6.245-12.489c.353-.705 1.073-1.151 1.862-1.151h39.55c.896 0 1.691.573 1.975 1.423z" fill="#37A1FC" fill-rule="nonzero"/><path fill="#37A1FC" opacity=".25" d="M50.841 173.654h-12.489v14.571l12.489-4.163"/><path d="M50.182 182.087c1.091-.364 2.269.226 2.633 1.317.364 1.091-.226 2.269-1.317 2.633l-12.489 4.163c-1.348.449-2.74-.554-2.74-1.975v-14.571c0-1.15.932-2.082 2.082-2.082h12.489c1.15 0 2.082.932 2.082 2.082s-.932 2.082-2.082 2.082h-10.408v9.601l9.75-3.25z" fill="#37A1FC" fill-rule="nonzero"/><path fill="#37A1FC" opacity=".25" d="M79.983 161.164h-12.489v14.571l12.489-4.163"/><path d="M79.325 169.598c1.091-.364 2.269.226 2.633 1.317.364 1.091-.226 2.269-1.317 2.633l-12.489 4.163c-1.348.449-2.74-.554-2.74-1.975v-14.571c0-1.15.932-2.082 2.082-2.082h12.489c1.15 0 2.082.932 2.082 2.082s-.932 2.082-2.082 2.082h-10.408v9.601l9.75-3.25z" fill="#37A1FC" fill-rule="nonzero"/><path d="M52.922 148.06v36.002c0 1.15-.932 2.082-2.082 2.082s-2.082-.932-2.082-2.082v-37.468c0-.88.553-1.664 1.381-1.96l29.142-10.408c1.356-.484 2.782.521 2.782 1.96v35.387c0 1.15-.932 2.082-2.082 2.082s-2.082-.932-2.082-2.082v-32.433l-24.979 8.921z" fill="#37A1FC" fill-rule="nonzero"/><path d="M104.962 206.959v-60.366c0-1.15.932-2.082 2.082-2.082s2.082.932 2.082 2.082v62.447c0 1.15-.932 2.082-2.082 2.082h-62.447c-1.15 0-2.082-.932-2.082-2.082s.932-2.082 2.082-2.082h60.366z" fill="#37A1FC" fill-rule="nonzero"/><path fill="#fff" d="M413.036 192.388h-70.772l-16.655 17.693v-84.304h87.426z"/><path fill="#37A1FC" opacity=".25" d="M354.751 140.349v8.326l-8.326 5.204-8.326-5.204z"/><path fill="#37A1FC" opacity=".25" d="M338.101 184.062l-12.492 13.53v12.489l16.655-17.693h70.772v-8.326z"/><path fill="#37A1FC" opacity=".25" d="M389.768 150.602l-10.037 24.092-10.408-6.245-6.245 8.326h37.468z"/><path d="M410.954 127.859h-83.263v76.974l13.057-13.872c.393-.418.942-.655 1.516-.655h68.69v-62.447zm-83.829 83.649c-1.292 1.373-3.597.458-3.597-1.427v-84.304c0-1.15.932-2.082 2.082-2.082h87.426c1.15 0 2.082.932 2.082 2.082v66.611c0 1.15-.932 2.082-2.082 2.082h-69.872l-16.038 17.039z" fill="#37A1FC" fill-rule="nonzero"/><path d="M352.67 141.502l-6.245-3.903-6.245 3.903v6.019l6.245 3.903 6.245-3.903v-6.019zm3.185 8.938l-8.326 5.204c-.675.422-1.531.422-2.206 0l-8.326-5.204c-.609-.38-.978-1.047-.978-1.765v-8.326c0-.718.37-1.385.978-1.765l8.326-5.204c.675-.422 1.531-.422 2.206 0l8.326 5.204c.609.38.978 1.047.978 1.765v8.326c0 .718-.37 1.385-.978 1.765z" fill="#37A1FC" fill-rule="nonzero"/><path d="M384.054 140.589c.713-1.712 3.14-1.707 3.846.008l14.571 35.387c.564 1.37-.443 2.874-1.925 2.874h-47.876c-1.715 0-2.694-1.958-1.665-3.331l12.489-16.653c.64-.853 1.822-1.085 2.736-.536l8.342 5.005 9.481-22.755zm-6.565 26.58c-.488 1.172-1.904 1.638-2.992.984l-8.798-5.279-8.865 11.82h40.605l-11.474-27.866-8.475 20.34z" fill="#1050FF" fill-rule="nonzero"/><path d="M342.262 178.858c-1.15 0-2.082-.932-2.082-2.082s.932-2.082 2.082-2.082h62.445c1.15 0 2.082.932 2.082 2.082s-.932 2.082-2.082 2.082h-62.445z" fill="#37A1FC" fill-rule="nonzero"/><path d="M384.054 140.589c.713-1.712 3.14-1.707 3.846.008l14.571 35.387c.564 1.37-.443 2.874-1.925 2.874h-47.876c-1.715 0-2.694-1.958-1.665-3.331l12.489-16.653c.64-.853 1.822-1.085 2.736-.536l8.342 5.005 9.481-22.755zm-6.565 26.58c-.488 1.172-1.904 1.638-2.992.984l-8.798-5.279-8.865 11.82h40.605l-11.474-27.866-8.475 20.34z" fill="#37A1FC" fill-rule="nonzero"/><path fill="#37A1FC" opacity=".25" d="M190.307 264.203v-11.449h42.152l5.724 11.449z"/><path d="M190.307 261.081v-8.328 8.328z" fill="#fff"/><path d="M192.388 261.08c0 1.15-.932 2.082-2.082 2.082s-2.082-.932-2.082-2.082v-8.326c0-1.15.932-2.082 2.082-2.082s2.082.932 2.082 2.082v8.326z" fill="#37A1FC" fill-rule="nonzero"/><path d="M240.264 341.283c0 1.15-.932 2.082-2.082 2.082h-70.774c-1.15 0-2.082-.932-2.082-2.082v-61.437l-24.563-32.75c-.27-.36-.416-.799-.416-1.249v-62.447c0-.618.274-1.204.749-1.599l12.489-10.408c.741-.618 1.81-.645 2.582-.066l12.489 9.367c.524.393.833 1.01.833 1.665v41.53l21.933 13.958c.6.382.964 1.044.964 1.756v11.07h66.611c.734 0 1.414.387 1.789 1.018l2.082 3.501c.415.698.386 1.574-.074 2.243l-22.531 32.773v51.076zm-4.163-2.082v-49.641c0-.421.128-.832.366-1.179l22.143-32.207-.796-1.338h-67.508c-1.15 0-2.082-.932-2.082-2.082v-12.009l-21.933-13.958c-.6-.382-.964-1.044-.964-1.756v-41.632l-10.34-7.755-10.476 8.73v60.779l24.563 32.75c.27.36.416.799.416 1.249v60.049h66.611z" fill="#37A1FC" fill-rule="nonzero"/><path fill="#fff" d="M269.407 239.224l4.163 12.489-4.163 12.489h-31.224l-6.245-12.489 6.245-12.489z"/><path d="M239.469 241.305l-5.204 10.408 5.204 10.408h28.437l3.469-10.408-3.469-10.408h-28.437zm31.912-2.74l4.163 12.489c.142.427.142.889 0 1.317l-4.163 12.489c-.283.85-1.079 1.423-1.975 1.423h-31.224c-.788 0-1.509-.445-1.862-1.151l-6.245-12.489c-.293-.586-.293-1.276 0-1.862l6.245-12.489c.353-.705 1.073-1.151 1.862-1.151h31.224c.896 0 1.691.573 1.975 1.423z" fill="#37A1FC" fill-rule="nonzero"/></g></svg>