<svg xmlns="http://www.w3.org/2000/svg" xmlns:xlink="http://www.w3.org/1999/xlink" width="887.37" height="759.32" viewBox="0 0 887.37 759.32"><defs><linearGradient id="a" x1="506.4" y1="439.52" x2="506.4" y2="130.8" gradientTransform="translate(-16.76 -20.68)" gradientUnits="userSpaceOnUse"><stop offset="0" stop-color="#808080" stop-opacity=".25"/><stop offset=".54" stop-color="#808080" stop-opacity=".12"/><stop offset="1" stop-color="#808080" stop-opacity=".1"/></linearGradient><linearGradient id="b" x1="379.37" y1="769.66" x2="379.37" y2="327.66" gradientTransform="translate(59.33 9.94)" xlink:href="#a"/><linearGradient id="c" x1="730.07" y1="729.34" x2="730.07" y2="659.46" xlink:href="#a"/><linearGradient id="d" x1="607.9" y1="698.71" x2="607.9" y2="670.12" xlink:href="#a"/><linearGradient id="e" x1="854.95" y1="374.84" x2="985.81" y2="65.83" gradientTransform="translate(1157.56 -689.29) rotate(90)" xlink:href="#a"/><linearGradient id="f" x1="485.61" y1="585.05" x2="485.61" y2="381.09" gradientTransform="translate(1234.58 -132.52) rotate(90)" xlink:href="#a"/><linearGradient id="g" x1="509.53" y1="656.67" x2="509.53" y2="453.47" gradientTransform="translate(209.29 -186.27)" xlink:href="#a"/><linearGradient id="h" x1="502.64" y1="656.89" x2="502.64" y2="453.69" gradientTransform="translate(200.82 -175.06)" xlink:href="#a"/><linearGradient id="i" x1="504.18" y1="668.85" x2="504.18" y2="465.65" gradientTransform="translate(190.32 -175.35)" xlink:href="#a"/><linearGradient id="j" x1="695.2" y1="610.94" x2="695.2" y2="400.94" xlink:href="#a"/><linearGradient id="k" x1="841.52" y1="638.78" x2="841.52" y2="513.78" xlink:href="#a"/></defs><title>Specs</title><rect x="383" y="110.12" width="213.27" height="308.72" rx="13.44" transform="translate(-202.62 44.27) rotate(-12.75)" fill="url(#a)"/><rect x="384.68" y="114.08" width="207.97" height="302.01" rx="13.44" transform="translate(-202.78 44.07) rotate(-12.75)" fill="#4745d1"/><path fill="url(#b)" d="M34.07 345.924l340.882-128.559 156.026 413.712-340.882 128.559z"/><path fill="#fff" d="M38.337 347.862l334.686-126.222 153.103 405.962-334.686 126.222z"/><path fill="#4745d1" d="M217.198 627.308l150.303-56.685 2.337 6.196-150.303 56.685zm14.029 37.177l246.365-92.913 2.337 6.196-246.365 92.913zm168.806-106.147l63.526-23.958 2.337 6.196-63.526 23.958zm-175.827 87.577l63.526-23.958 2.337 6.196-63.526 23.958zm91.43-34.494l63.526-23.958 2.337 6.196-63.526 23.958zm91.42-34.491l63.526-23.958 2.337 6.196-63.526 23.958zm-257.743-158.958l185.936-70.123 25.713 68.178-185.936 70.123z"/><path d="M748.93 687.15a24.07 24.07 0 0 0 .36-4.11 23.59 23.59 0 1 0-38.07 18.61 23.18 23.18 0 0 0-.37 4.11 23.59 23.59 0 1 0 38.08-18.61z" transform="translate(-156.32 -70.34)" fill="url(#c)"/><circle cx="577.73" cy="634.39" r="21.44" fill="#4745d1"/><circle cx="607.9" cy="684.42" r="14.3" fill="url(#d)"/><circle cx="607.9" cy="684.42" r="12.71" fill="#4745d1"/><circle cx="569.78" cy="613.74" r="21.44" fill="#4745d1"/><path d="M668 0h3v17h-3zm10 7v3h-17v-3zm-504 128h3v17h-3zm10 7v3h-17v-3zm217 575h3v17h-3zm10 7v3h-17v-3z" opacity=".5" fill="#47e6b1"/><path d="M946.21 659.29a3.67 3.67 0 0 1-2.05-4.44 1.89 1.89 0 0 0 .08-.4 1.84 1.84 0 0 0-3.31-1.23 1.9 1.9 0 0 0-.2.37 3.68 3.68 0 0 1-4.45 2 1.77 1.77 0 0 0-.4-.08 1.84 1.84 0 0 0-1.22 3.31 1.62 1.62 0 0 0 .36.21 3.68 3.68 0 0 1 2.05 4.44 1.15 1.15 0 0 0-.08.41 1.84 1.84 0 0 0 3.31 1.22 2.53 2.53 0 0 0 .2-.36 3.67 3.67 0 0 1 4.44-2 1.86 1.86 0 0 0 .41.08 1.84 1.84 0 0 0 1.22-3.31 2.6 2.6 0 0 0-.36-.22zm-76 101a3.67 3.67 0 0 1-2.05-4.44 1.89 1.89 0 0 0 .08-.4 1.84 1.84 0 0 0-3.31-1.23 1.9 1.9 0 0 0-.2.37 3.68 3.68 0 0 1-4.45 2 1.77 1.77 0 0 0-.4-.08 1.84 1.84 0 0 0-1.22 3.31 1.62 1.62 0 0 0 .36.21 3.68 3.68 0 0 1 2.05 4.44 1.15 1.15 0 0 0-.08.41 1.84 1.84 0 0 0 3.31 1.22 2.53 2.53 0 0 0 .2-.36 3.67 3.67 0 0 1 4.44-2 1.86 1.86 0 0 0 .41.08 1.84 1.84 0 0 0 1.22-3.31 2.6 2.6 0 0 0-.36-.22zm-617-48a3.67 3.67 0 0 1-2.05-4.44 1.89 1.89 0 0 0 .08-.4 1.84 1.84 0 0 0-3.31-1.23 1.9 1.9 0 0 0-.2.37 3.68 3.68 0 0 1-4.45 2 1.77 1.77 0 0 0-.4-.08 1.84 1.84 0 0 0-1.22 3.31 1.62 1.62 0 0 0 .36.21 3.68 3.68 0 0 1 2 4.44 1.15 1.15 0 0 0-.08.41 1.84 1.84 0 0 0 3.31 1.22 2.53 2.53 0 0 0 .2-.36 3.67 3.67 0 0 1 4.44-2 1.86 1.86 0 0 0 .41.08 1.84 1.84 0 0 0 1.22-3.31 2.6 2.6 0 0 0-.31-.22z" transform="translate(-156.32 -70.34)" fill="#4d8af0" opacity=".5"/><circle cx="493" cy="56" r="6" fill="#f55f44" opacity=".5"/><circle cx="6" cy="73" r="6" fill="#4d8af0" opacity=".5"/><circle cx="843" cy="411" r="6" fill="#47e6b1" opacity=".5"/><circle cx="59" cy="301" r="6" fill="#f55f44" opacity=".5"/><path d="M794.22 148.35h286a6.29 6.29 0 0 1 6.29 6.29v152.92a6.28 6.28 0 0 1-6.28 6.28h-286a6.29 6.29 0 0 1-6.29-6.29v-152.91a6.29 6.29 0 0 1 6.29-6.29z" transform="translate(390.28 1043.48) rotate(-79.98)" fill="url(#e)" opacity=".5"/><rect x="856.72" y="85.71" width="161.02" height="290.64" rx="13.64" transform="translate(-101.83 -229.87) rotate(10.02)" fill="#fff"/><path d="M1001.08 102.14a13 13 0 0 1-14.6 8.69l-54.77-9.67a13.06 13.06 0 0 1-10.71-13.16l-29-5.13a6.11 6.11 0 0 0-7.08 5l-45.92 259.76a6.12 6.12 0 0 0 4.95 7.09l138.55 24.48a6.11 6.11 0 0 0 7.09-5l45.9-259.81a6.11 6.11 0 0 0-5-7.09z" transform="translate(-156.32 -70.34)" fill="#e0e0e0"/><rect x="941.07" y="98.26" width="35.88" height="2.24" rx="1.12" transform="translate(-127.66 -223.96) rotate(9.3)" fill="#dbdbdb"/><circle cx="827.96" cy="32.96" r="1.35" fill="#dbdbdb"/><path fill="#fff" d="M736.492 62.649l43.472 6.732-5.814 37.544-43.472-6.732z"/><path fill="#4745d1" opacity=".3" d="M728.077 116.979l43.472 6.732-5.814 37.544-43.472-6.732z"/><path fill="#fff" d="M719.673 171.32l43.472 6.732-5.814 37.544-43.472-6.732z"/><path fill="#3ad29f" opacity=".3" d="M711.258 225.66l43.472 6.732-5.814 37.544-43.472-6.732z"/><path fill="#fff" d="M789.463 79.948l57.304 8.874-.612 3.952-57.304-8.874zm-1.832 11.856l57.304 8.874-.612 3.952-57.304-8.874zm-6.434 41.498l57.304 8.874-.612 3.952-57.304-8.874zm.698 9.491l57.42 8.7-.6 3.96-57.42-8.7zm-8.953 43.865l57.304 8.874-.612 3.952-57.304-8.874zm-1.833 11.856l57.304 8.874-.612 3.952-57.304-8.874zm-6.432 41.489l57.304 8.874-.612 3.952-57.304-8.874zm-1.832 11.856l57.304 8.874-.612 3.952-57.304-8.874z"/><path fill="url(#f)" d="M563.155 384.459l2.04-203.96 62.36.624-2.04 203.96z" opacity=".5"/><path fill="#e0e0e0" d="M567.045 181.994l59.29.593-2.012 201.23-59.29-.593z"/><path fill="#4d8af0" d="M575.763 185.319l41.91.419-.419 41.91-41.91-.419z"/><path fill="#4d8af0" opacity=".5" d="M575.247 235.924l41.91.419-.419 41.91-41.91-.419z"/><path fill="#4d8af0" opacity=".3" d="M574.741 286.519l41.91.419-.419 41.91-41.91-.419z"/><path fill="url(#g)" d="M501.477 207.492l59.242-19.332 62.992 193.04-59.242 19.332z" opacity=".5"/><path fill="#f5f5f5" d="M503.878 212.14l56.444-18.083 61.143 190.847-56.444 18.083z"/><path fill="#ff5252" d="M513.177 212.554l39.898-12.783 12.783 39.898-39.898 12.783z"/><path fill="#ff5252" opacity=".5" d="M528.622 260.735l39.898-12.783 12.783 39.898-39.898 12.783z"/><path fill="#ff5252" opacity=".3" d="M544.046 308.91l39.898-12.783 12.783 39.898-39.898 12.783z"/><path fill="url(#h)" d="M470.287 236.984l54.316-30.681 99.974 176.987-54.316 30.681z" opacity=".5"/><path fill="#f5f5f5" d="M472.737 237.166l51.642-29.171 98.631 174.609-51.642 29.171z"/><path fill="#69f0ae" d="M481.893 235.701l36.504-20.62 20.62 36.504-36.504 20.62z"/><path fill="#69f0ae" opacity=".5" d="M506.798 279.776l36.504-20.62 20.62 36.504-36.504 20.62z"/><path fill="#69f0ae" opacity=".3" d="M531.709 323.853l36.504-20.62 20.62 36.504-36.504 20.62z"/><path fill="url(#i)" d="M452.402 258.949l50.013-37.229 121.31 162.966-50.013 37.229z" opacity=".5"/><path fill="#fff" d="M454.85 258.831l47.551-35.396 119.681 160.777-47.551 35.396z"/><path fill="#4745d1" d="M463.734 256.213l33.612-25.02 25.02 33.612-33.612 25.02z"/><path fill="#4745d1" opacity=".5" d="M493.961 296.819l33.612-25.02 25.02 33.612-33.612 25.02z"/><path fill="#4745d1" opacity=".3" d="M524.171 337.407l33.612-25.02 25.02 33.612-33.612 25.02z"/><circle cx="695.2" cy="505.94" r="105" fill="url(#j)"/><circle cx="695.2" cy="505.94" r="100" fill="#f5f5f5"/><path d="M854.28 513.81a62.5 62.5 0 0 0-64.28 55.82h-18a3.64 3.64 0 0 0-3.64 3.64v6a3.64 3.64 0 0 0 3.64 3.64h18a62.5 62.5 0 1 0 64.27-69.11z" transform="translate(-156.32 -70.34)" fill="url(#k)" opacity=".5"/><path d="M853.51 517.56a58.75 58.75 0 0 0-60.41 52.44h-17.42a2.91 2.91 0 0 0-2.91 2.91v6.67a2.91 2.91 0 0 0 2.91 2.92h17.42a58.75 58.75 0 1 0 60.41-65z" transform="translate(-156.32 -70.34)" fill="#fff"/><circle cx="695.2" cy="505.94" r="41.25" fill="#795548"/><path d="M716.45 485.94s11.76 18.28 8.4 32.5c0 0 13.45-22.35-8.4-32.5z" fill="#fff" opacity=".2"/><circle cx="721.45" cy="528.44" r="3.75" fill="#fff" opacity=".2"/></svg>