<svg height="758.59" viewBox="0 0 931 758.59" width="931" xmlns="http://www.w3.org/2000/svg" xmlns:xlink="http://www.w3.org/1999/xlink"><linearGradient id="a" gradientTransform="matrix(.88433665 .46684974 -.46684974 .88433665 226.08 -367.44)" gradientUnits="userSpaceOnUse" x1="1093.68" x2="1027.95" y1="551.39" y2="426.89"><stop offset="0" stop-color="#808080" stop-opacity=".25"/><stop offset=".54" stop-color="#808080" stop-opacity=".12"/><stop offset="1" stop-color="#808080" stop-opacity=".1"/></linearGradient><linearGradient id="b" x1="1097.68" x2="1031.95" xlink:href="#a" y1="790.82" y2="666.32"/><linearGradient id="c" gradientTransform="matrix(0 1 -1 0 1491.06 -395.94)" x1="1113.9" x2="1012.94" xlink:href="#a" y1="704.46" y2="513.25"/><linearGradient id="d" gradientTransform="matrix(.88327513 .46885503 -.46885503 .88327513 93.1 -453.94)" gradientUnits="userSpaceOnUse" x1="1068.95" x2="1068.95" y1="637.04" y2="578.4"><stop offset="0" stop-opacity=".12"/><stop offset=".55" stop-opacity=".09"/><stop offset="1" stop-opacity=".02"/></linearGradient><linearGradient id="e" gradientTransform="translate(-7.22 .36)" x1="300.72" x2="555.76" xlink:href="#a" y1="713.57" y2="111.34"/><linearGradient id="f" gradientTransform="matrix(.89446661 -.44713474 .44713474 .89446661 -435.63 82.11)" x1="542.83" x2="542.83" xlink:href="#d" y1="594.95" y2="489.85"/><g fill="none" stroke="#2196f3" stroke-miterlimit="10" stroke-width="4"><g opacity=".3"><path d="m659.7 38.33q2.64 1.43 5.25 2.91"/><path d="m809.67 133c105.72 64.33 176.33 180.62 176.33 313.4a367.17 367.17 0 0 1 -11.5 91.44" transform="translate(-134.5 -85.81)"/><path d="m838.5 457.76q-.79 2.89-1.63 5.77"/></g><path d="m118.5 360.59c0-159.28 101.61-294.83 243.54-345.4" opacity=".21" stroke-dasharray="12"/><path d="m794.2 768.67a364.87 364.87 0 0 1 -174.7 44.23c-119.53 0-225.7-57.22-292.6-145.77" opacity=".5" stroke-dasharray="12" transform="translate(-134.5 -85.81)"/><g opacity=".21"><path d="m722.2 429.71q-.84 2.88-1.75 5.74"/><path d="m851.06 532.56c-35 93.93-125.45 160.84-231.56 160.84-136.41 0-247-110.59-247-247s110.59-247 247-247a245.92 245.92 0 0 1 149.78 50.6" transform="translate(-134.5 -85.81)"/><path d="m639.5 167.85q2.34 1.88 4.63 3.81"/></g><g opacity=".5"><path d="m464.02 222.19q3-.44 6-.76"/><path d="m616 306.45h3.5a140 140 0 0 1 122.26 208.21" transform="translate(-134.5 -85.81)"/><path d="m604.34 433.83q-1.57 2.56-3.25 5"/></g></g><path d="m965.33 630.8-100.78-53.21 52.57-86.09a3.12 3.12 0 0 1 4.12-1.13l84.14 44.43a3.12 3.12 0 0 1 1.39 4z" fill="url(#a)" transform="translate(-134.5 -85.81)"/><path d="m963.66 626.17-94.34-49.81 49.12-80.44a3.12 3.12 0 0 1 4.12-1.13l78.44 41.42a3.12 3.12 0 0 1 1.39 4z" fill="#f2f2f2" transform="translate(-134.5 -85.81)"/><path d="m898.79 756.81-100.79-53.2-41.44 92a3.12 3.12 0 0 0 1.39 4l84.16 44.39a3.12 3.12 0 0 0 4.12-1.13z" fill="url(#b)" transform="translate(-134.5 -85.81)"/><path d="m894 758-94.34-49.81-38.66 85.96a3.12 3.12 0 0 0 1.39 4l78.44 41.41a3.12 3.12 0 0 0 4.12-1.13z" fill="#f2f2f2" transform="translate(-134.5 -85.81)"/><rect fill="url(#c)" height="161.24" rx="2.33" transform="matrix(.46684974 -.88433665 .88433665 .46684974 -254.46 1050.18)" width="161.24" x="801.59" y="586.87"/><rect fill="#f2f2f2" height="156.39" rx="2.33" transform="matrix(.88433665 .46684974 -.46684974 .88433665 279.21 -420.49)" width="156.39" x="804.01" y="589.29"/><rect fill="#f2f2f2" height="24.25" rx="1.5" transform="matrix(.88433665 .46684974 -.46684974 .88433665 291.42 -460)" width="9.7" x="963.21" y="660.24"/><rect fill="#9857ac" height="141.84" rx="2.33" transform="matrix(.88433665 .46684974 -.46684974 .88433665 279.21 -420.49)" width="141.84" x="811.29" y="596.56"/><path d="m790.82 581.84-6.18-13.85-42.57 18.84-8.09-17.86-14.35 6.37 11.9 25.77 2.85 6.59z" fill="url(#d)"/><path d="m790.15 581.23-5.69-12.39-42.79 19.67-8.38-18.22-12.39 5.69 11.24 24.4 2.92 6.17z" fill="#fff"/><rect fill="url(#e)" height="581.96" rx="12.25" transform="matrix(.92084548 -.38992769 .38992769 .92084548 -262.15 111.06)" width="322.42" x="259.82" y="121.83"/><rect fill="#fff" height="566.24" rx="13.64" transform="matrix(.92084548 -.38992769 .38992769 .92084548 -262.15 111.06)" width="313.7" x="264.17" y="129.7"/><path d="m388.72 134.45a25.43 25.43 0 0 1 -14.65 29.69l-99.77 42.26a25.43 25.43 0 0 1 -31.52-10.14l-52.85 22.38a11.91 11.91 0 0 0 -6.33 15.62l200.46 473.31a11.91 11.91 0 0 0 15.62 6.33l252.43-106.9a11.91 11.91 0 0 0 6.33-15.62l-200.44-473.33a11.91 11.91 0 0 0 -15.62-6.33z" fill="#9857ac" transform="translate(-134.5 -85.81)"/><rect fill="#dbdbdb" height="4.37" rx="2" transform="matrix(.92084548 -.38992769 .38992769 .92084548 -176.73 52.72)" width="69.91" x="285.1" y="171.08"/><circle cx="365.74" cy="153.44" fill="#dbdbdb" r="2.62" transform="matrix(.92084548 -.38992769 .38992769 .92084548 -165.38 68.97)"/><path d="m329.26 266.13-26.64-5.4-16.79 81.73-34.49-6.77-5.61 27.57 49.99 9.44 12.57 2.69z" fill="url(#f)"/><path d="m327.68 266.46-24-4.57-15.81 82.91-35.31-6.73-4.58 24 47.29 8.98 12.06 2.16z" fill="#fff"/><circle cx="917" cy="24.6" fill="#80deea" opacity=".3" r="14"/><circle cx="772.5" cy="343.19" fill="#80deea" opacity=".3" r="14"/><circle cx="14" cy="81.6" fill="#80deea" opacity=".5" r="14"/><circle cx="28" cy="38.6" fill="#80deea" opacity=".3" r="14"/><path d="m292.3 213.4 99.78-42.25a25.43 25.43 0 0 0 14.65-29.69l51-21.61-.76-1.79a11.91 11.91 0 0 0 -15.62-6.33l-53.65 22.72a25.43 25.43 0 0 1 -14.65 29.69l-99.75 42.26a25.08 25.08 0 0 1 -8.41 1.94 25.42 25.42 0 0 0 27.41 5.06zm-90.69 27.85a11.91 11.91 0 0 1 6.33-15.62l45.55-19.29a25.32 25.32 0 0 1 -11.71-10.09l-52.85 22.38a11.91 11.91 0 0 0 -6.33 15.62l200.46 473.32a11.91 11.91 0 0 0 15.62 6.33l2.63-1.11z" fill="#fff" opacity=".2" transform="translate(-134.5 -85.81)"/></svg>