<svg xmlns="http://www.w3.org/2000/svg" xmlns:xlink="http://www.w3.org/1999/xlink" width="931" height="758.59" viewBox="0 0 931 758.59"><defs><linearGradient id="a" x1="1093.68" y1="551.39" x2="1027.95" y2="426.89" gradientTransform="translate(226.08 -367.44) rotate(27.83)" gradientUnits="userSpaceOnUse"><stop offset="0" stop-color="#808080" stop-opacity=".25"/><stop offset=".54" stop-color="#808080" stop-opacity=".12"/><stop offset="1" stop-color="#808080" stop-opacity=".1"/></linearGradient><linearGradient id="c" x1="1097.68" y1="790.82" x2="1031.95" y2="666.32" xlink:href="#a"/><linearGradient id="d" x1="1113.9" y1="704.46" x2="1012.94" y2="513.25" gradientTransform="translate(1491.06 -395.94) rotate(90)" xlink:href="#a"/><linearGradient id="b" x1="1068.95" y1="637.04" x2="1068.95" y2="578.4" gradientTransform="translate(93.1 -453.94) rotate(27.96)" gradientUnits="userSpaceOnUse"><stop offset="0" stop-opacity=".12"/><stop offset=".55" stop-opacity=".09"/><stop offset="1" stop-opacity=".02"/></linearGradient><linearGradient id="e" x1="300.72" y1="713.57" x2="555.76" y2="111.34" gradientTransform="translate(-7.22 .36)" xlink:href="#a"/><linearGradient id="f" x1="542.83" y1="594.95" x2="542.83" y2="489.85" gradientTransform="translate(-435.63 82.11) rotate(-26.56)" xlink:href="#b"/></defs><title>sync4</title><g opacity=".3" stroke="#2196f3" stroke-miterlimit="10" stroke-width="4" fill="none"><path d="M659.7 38.33q2.64 1.43 5.25 2.91"/><path d="M809.67 133c105.72 64.33 176.33 180.62 176.33 313.4a367.17 367.17 0 0 1-11.5 91.44" transform="translate(-134.5 -85.81)"/><path d="M838.5 457.76q-.79 2.89-1.63 5.77"/></g><path d="M118.5 360.59c0-159.28 101.61-294.83 243.54-345.4" stroke="#2196f3" stroke-miterlimit="10" stroke-width="4" stroke-dasharray="12" opacity=".21" fill="none"/><path d="M794.2 768.67a364.87 364.87 0 0 1-174.7 44.23c-119.53 0-225.7-57.22-292.6-145.77" transform="translate(-134.5 -85.81)" stroke="#2196f3" stroke-miterlimit="10" stroke-width="4" stroke-dasharray="12" opacity=".5" fill="none"/><g opacity=".21" stroke="#2196f3" stroke-miterlimit="10" stroke-width="4" fill="none"><path d="M722.2 429.71q-.84 2.88-1.75 5.74"/><path d="M851.06 532.56c-35 93.93-125.45 160.84-231.56 160.84-136.41 0-247-110.59-247-247s110.59-247 247-247a245.92 245.92 0 0 1 149.78 50.6" transform="translate(-134.5 -85.81)"/><path d="M639.5 167.85q2.34 1.88 4.63 3.81"/></g><g opacity=".5" stroke="#2196f3" stroke-miterlimit="10" stroke-width="4" fill="none"><path d="M464.02 222.19q3-.44 6-.76"/><path d="M616 306.45h3.5a140 140 0 0 1 122.26 208.21" transform="translate(-134.5 -85.81)"/><path d="M604.34 433.83q-1.57 2.56-3.25 5"/></g><path d="M965.33 630.8l-100.78-53.21 52.57-86.09a3.12 3.12 0 0 1 4.12-1.13l84.14 44.43a3.12 3.12 0 0 1 1.39 4z" transform="translate(-134.5 -85.81)" fill="url(#a)"/><path d="M963.66 626.17l-94.34-49.81 49.12-80.44a3.12 3.12 0 0 1 4.12-1.13l78.44 41.42a3.12 3.12 0 0 1 1.39 4z" transform="translate(-134.5 -85.81)" fill="#f2f2f2"/><path d="M898.79 756.81l-100.79-53.2-41.44 92a3.12 3.12 0 0 0 1.39 4l84.16 44.39a3.12 3.12 0 0 0 4.12-1.13z" transform="translate(-134.5 -85.81)" fill="url(#c)"/><path d="M894 758l-94.34-49.81-38.66 85.96a3.12 3.12 0 0 0 1.39 4l78.44 41.41a3.12 3.12 0 0 0 4.12-1.13z" transform="translate(-134.5 -85.81)" fill="#f2f2f2"/><rect x="801.59" y="586.87" width="161.24" height="161.24" rx="2.33" ry="2.33" transform="translate(-254.46 1050.18) rotate(-62.17)" fill="url(#d)"/><rect x="804.01" y="589.29" width="156.39" height="156.39" rx="2.33" ry="2.33" transform="translate(279.21 -420.49) rotate(27.83)" fill="#f2f2f2"/><rect x="963.21" y="660.24" width="9.7" height="24.25" rx="1.5" ry="1.5" transform="translate(291.42 -460) rotate(27.83)" fill="#f2f2f2"/><rect x="811.29" y="596.56" width="141.84" height="141.84" rx="2.33" ry="2.33" transform="translate(279.21 -420.49) rotate(27.83)" fill="#9857ac"/><path fill="url(#b)" d="M790.82 581.84l-6.18-13.85-42.57 18.84-8.09-17.86-14.35 6.37 11.9 25.77 2.85 6.59 56.44-25.86z"/><path fill="#fff" d="M790.15 581.23l-5.69-12.39-42.79 19.67-8.38-18.22-12.39 5.69 11.24 24.4 2.92 6.17 55.09-25.32z"/><rect x="259.82" y="121.83" width="322.42" height="581.96" rx="12.25" ry="12.25" transform="translate(-262.15 111.06) rotate(-22.95)" fill="url(#e)"/><rect x="264.17" y="129.7" width="313.7" height="566.24" rx="13.64" ry="13.64" transform="translate(-262.15 111.06) rotate(-22.95)" fill="#fff"/><path d="M388.72 134.45a25.43 25.43 0 0 1-14.65 29.69l-99.77 42.26a25.43 25.43 0 0 1-31.52-10.14l-52.85 22.38a11.91 11.91 0 0 0-6.33 15.62l200.46 473.31a11.91 11.91 0 0 0 15.62 6.33l252.43-106.9a11.91 11.91 0 0 0 6.33-15.62l-200.44-473.33a11.91 11.91 0 0 0-15.62-6.33z" transform="translate(-134.5 -85.81)" fill="#9857ac"/><rect x="285.1" y="171.08" width="69.91" height="4.37" rx="2" ry="2" transform="translate(-176.73 52.72) rotate(-22.95)" fill="#dbdbdb"/><circle cx="365.74" cy="153.44" r="2.62" transform="translate(-165.38 68.97) rotate(-22.95)" fill="#dbdbdb"/><path fill="url(#f)" d="M329.26 266.13l-26.64-5.4-16.79 81.73-34.49-6.77-5.61 27.57 49.99 9.44 12.57 2.69 20.97-109.26z"/><path fill="#fff" d="M327.68 266.46l-24-4.57-15.81 82.91-35.31-6.73-4.58 24 47.29 8.98 12.06 2.16 20.35-106.75z"/><circle cx="917" cy="24.6" r="14" fill="#80deea" opacity=".3"/><circle cx="772.5" cy="343.19" r="14" fill="#80deea" opacity=".3"/><circle cx="14" cy="81.6" r="14" fill="#80deea" opacity=".5"/><circle cx="28" cy="38.6" r="14" fill="#80deea" opacity=".3"/><path d="M292.3 213.4l99.78-42.25a25.43 25.43 0 0 0 14.65-29.69l51-21.61-.76-1.79a11.91 11.91 0 0 0-15.62-6.33l-53.65 22.72a25.43 25.43 0 0 1-14.65 29.69l-99.75 42.26a25.08 25.08 0 0 1-8.41 1.94 25.42 25.42 0 0 0 27.41 5.06zm-90.69 27.85a11.91 11.91 0 0 1 6.33-15.62l45.55-19.29a25.32 25.32 0 0 1-11.71-10.09l-52.85 22.38a11.91 11.91 0 0 0-6.33 15.62l200.46 473.32a11.91 11.91 0 0 0 15.62 6.33l2.63-1.11z" transform="translate(-134.5 -85.81)" opacity=".2" fill="#fff"/></svg>