<svg width="20" height="20" viewBox="0 0 20 20" 
  xmlns="http://www.w3.org/2000/svg">
  <title>Icon: Checkbox</title>
  <path d="M9.091 14.091l-4.545-3.864 1.25-1.477 3.068 2.614 5.341-6.25 1.477 1.25-6.591 7.727zm10.909.227v-8.636c0-3.182-2.5-5.682-5.682-5.682h-8.636c-3.182 0-5.682 2.5-5.682 5.682v8.636c0 3.182 2.5 5.682 5.682 5.682h8.636c3.182 0 5.682-2.5 5.682-5.682zm-14.318 3.75c-2.159 0-3.75-1.591-3.75-3.75v-8.636c0-2.159 1.591-3.75 3.75-3.75h8.636c2.159 0 3.75 1.591 3.75 3.75v8.636c0 2.159-1.591 3.75-3.75 3.75h-8.636z" fill="currentColor" fill-rule="nonzero"/>
</svg>