<svg width="33" height="32" viewBox="0 0 33 32" 
    xmlns="http://www.w3.org/2000/svg">
    <title>Icon: Connect</title>
    <path d="M19.25 20.87c0 4.61-3.694 8.348-8.25 8.348s-8.25-3.738-8.25-8.348c0-4.61 3.694-8.348 8.25-8.348s8.25 3.738 8.25 8.348m2.75 0c0-6.147-4.925-11.13-11-11.13s-11 4.984-11 11.13c0 6.147 4.925 11.13 11 11.13s11-4.984 11-11.13" fill="currentColor"/>
    <path d="M30.25 20.87c0 4.61-3.694 8.348-8.25 8.348s-8.25-3.738-8.25-8.348c0-4.61 3.694-8.348 8.25-8.348s8.25 3.738 8.25 8.348m2.75 0c0-6.147-4.925-11.13-11-11.13s-11 4.984-11 11.13c0 6.147 4.925 11.13 11 11.13s11-4.984 11-11.13" fill="var(--orange-dark)"/>
    <path d="M24.75 11.13c0 4.61-3.694 8.348-8.25 8.348s-8.25-3.738-8.25-8.348c0-4.61 3.694-8.348 8.25-8.348s8.25 3.738 8.25 8.348m2.75 0c0-6.147-4.925-11.13-11-11.13s-11 4.984-11 11.13c0 6.147 4.925 11.13 11 11.13s11-4.984 11-11.13" fill="currentColor"/>
</svg>
