<svg width="32" height="32" viewBox="0 0 32 32" 
  xmlns="http://www.w3.org/2000/svg">
  <title>Icon: Approach</title>
  <path d="M29.333 11.333c0 4.787-3.88 8.667-8.667 8.667s-8.667-3.88-8.667-8.667 3.88-8.667 8.667-8.667 8.667 3.88 8.667 8.667m-16.951-7.717c-.213.229-.419.465-.613.711l-.187.251c-.168.225-.329.455-.479.692l-.193.317c-.134.226-.259.457-.377.693l-.177.367c-.105.231-.201.468-.29.707l-.148.403c-.081.242-.147.489-.212.739l-.107.416c-.059.268-.099.542-.139.817l-.058.377c-.043.404-.069.813-.069 1.228 0 6.259 5.074 11.333 11.333 11.333.415 0 .824-.025 1.227-.069l.377-.057c.275-.039.549-.081.817-.139l.415-.107c.249-.064.497-.131.74-.213l.401-.147c.239-.09.477-.185.709-.291l.365-.176c.237-.119.469-.244.696-.379l.314-.191c.239-.152.469-.313.695-.481l.247-.185c.247-.195.484-.401.714-.616l.157-.142c.277-.269.542-.549.791-.844 1.662-1.972 2.667-4.515 2.667-7.296 0-.371-.021-.736-.055-1.097l-.051-.378c-.03-.23-.061-.459-.105-.685l-.103-.453-.146-.569-.158-.486-.179-.49-.214-.505-.202-.42-.274-.517-.213-.35-.341-.529-.195-.261c-.14-.189-.279-.377-.429-.555l-.001-.001c-.417-.494-.875-.953-1.369-1.369l-.001-.001c-.18-.151-.369-.291-.559-.432l-.257-.192c-.173-.121-.353-.233-.533-.344l-.345-.209-.521-.277-.415-.199-.509-.216-.485-.178-.491-.159-.565-.145-.457-.104c-.225-.043-.453-.075-.683-.105l-.379-.051c-.361-.035-.726-.055-1.097-.055-2.781 0-5.324 1.005-7.296 2.667-.295.248-.575.513-.843.79l-.145.159" class="u-fill-orange-dark" />
  <path d="M29.333 20.553v8.113c0 .368-.299.667-.667.667h-25.333c-.368 0-.667-.299-.667-.667v-25.333c0-.368.299-.667.667-.667h8.113c1.024-1.089 2.236-1.993 3.588-2.667h-13.035c-1.105 0-2 .895-2 2v28c0 1.105.895 2 2 2h28c1.105 0 2-.895 2-2v-13.035c-.673 1.352-1.577 2.564-2.667 3.588" class="u-fill-cc" />
</svg>