<svg width="35" height="32" viewBox="0 0 35 32" version="1.1" xmlns="http://www.w3.org/2000/svg" xmlns:xlink="http://www.w3.org/1999/xlink">
<title>Icon: Assembling</title>
    <path d="M0,5.09090909 C0,4.68945455 0.325818182,4.36363636 0.727272727,4.36363636 L4.36363636,4.36363636 L4.36363636,7.27272727 L0.727272727,7.27272727 C0.325818182,7.27272727 0,6.94690909 0,6.54545455 L0,5.09090909 Z M28.3636364,4.36363636 C28.7650909,4.36363636 29.0909091,4.68945455 29.0909091,5.09090909 L29.0909091,6.54545455 L29.0909091,23.2727273 L29.0909091,24.7272727 L29.0909091,27.6363636 L29.0909091,29.0909091 L29.0909091,31.2727273 C29.0909091,31.6741818 28.7650909,32 28.3636364,32 L26.9090909,32 C26.5076364,32 26.1818182,31.6741818 26.1818182,31.2727273 L26.1818182,29.0909091 L26.1818182,27.6363636 L26.1818182,24.7272727 L26.1818182,23.2727273 L26.1818182,7.27272727 L10.1818182,7.27272727 L10.1818182,4.36363636 L26.9090909,4.36363636 L28.3636364,4.36363636 Z" fill="var(--orange-dark)"/>
    <path d="M8.72727273,8.72727273 L8.72727273,24.7272727 L24.7272727,24.7272727 L24.7272727,27.6363636 L8,27.6363636 L6.54545455,27.6363636 C6.144,27.6363636 5.81818182,27.3105455 5.81818182,26.9090909 L5.81818182,25.4545455 L5.81818182,8.72727273 L5.81818182,7.27272727 L5.81818182,4.36363636 L5.81818182,2.90909091 L5.81818182,0.727272727 C5.81818182,0.325818182 6.144,0 6.54545455,0 L8,0 C8.40145455,0 8.72727273,0.325818182 8.72727273,0.727272727 L8.72727273,2.90909091 L8.72727273,4.36363636 L8.72727273,7.27272727 L8.72727273,8.72727273 Z M34.1818182,24.7272727 C34.5832727,24.7272727 34.9090909,25.0530909 34.9090909,25.4545455 L34.9090909,26.9090909 C34.9090909,27.3105455 34.5832727,27.6363636 34.1818182,27.6363636 L30.5454545,27.6363636 L30.5454545,24.7272727 L34.1818182,24.7272727 Z" fill="#8B3384"/>
</svg>
