<svg width="39" height="32" viewBox="0 0 39 32" xmlns="http://www.w3.org/2000/svg">
    <title>Icon: housecss</title>
    <path d="M35.2 28c0 .442-.358.8-.8.8h-30.4c-.442 0-.8-.358-.8-.8v-24c0-.442.358-.8.8-.8h30.4c.442 0 .8.358.8.8v24zm.8-28h-33.6c-1.326 0-2.4 1.074-2.4 2.4v27.2c0 1.326 1.074 2.4 2.4 2.4h33.6c1.326 0 2.4-1.074 2.4-2.4v-27.2c0-1.326-1.074-2.4-2.4-2.4z" fill="currentColor"/>
    <path fill="var(--orange-dark)" d="M24 8h-19.200000000000003v1.6h17.6v17.6h1.6v-17.6h4.8v17.6h1.6v-19.200000000000003h-1.6z"/>
</svg>
