<svg width="150" height="30" viewBox="0 0 158 32" 
  xmlns="http://www.w3.org/2000/svg">
  <path d="M49.343 22.93c.966 0 1.778-.326 2.435-.976.657-.65.983-1.46.983-2.424s-.325-1.774-.976-2.43c-.652-.655-1.464-.98-2.44-.98h-5.638v6.81h5.637zM43.706 7.833v5.625h5.19c.806 0 1.485-.27 2.02-.806.536-.534.8-1.206.8-2.01 0-.805-.264-1.477-.8-2.01-.535-.536-1.214-.8-2.02-.8h-5.19zM40.443 25.75V5.013h8.453c1.678 0 3.114.55 4.3 1.664 1.188 1.107 1.784 2.38 1.784 3.818 0 .826-.17 1.586-.513 2.28-.343.695-.685 1.18-1.022 1.45l-.535.418c.077.04.182.105.326.193.138.094.392.292.762.595.364.304.68.64.944 1.004.27.37.513.843.74 1.427.226.584.342 1.19.342 1.813 0 1.664-.635 3.086-1.916 4.287-1.27 1.19-2.86 1.79-4.765 1.79h-8.9zM66.337 13.905c-1.132 0-2.032.363-2.7 1.09-.673.728-1.01 1.747-1.01 3.06v7.695h-2.97V11.536h2.97v1.47l.188-.186c.088-.088.27-.226.552-.425.28-.198.58-.374.894-.534.31-.16.713-.302 1.2-.434.49-.132.982-.193 1.473-.193h.74v2.815c-.398-.093-.845-.143-1.336-.143M70.147 25.75h2.975V11.536h-2.975V25.75zm2.77-17.382c-.336.336-.766.507-1.274.507-.514 0-.94-.17-1.276-.507-.336-.34-.508-.76-.508-1.272 0-.513.17-.937.507-1.273.337-.342.762-.507 1.276-.507.508 0 .938.165 1.275.507.337.336.508.76.508 1.273 0 .512-.17.93-.508 1.272zM79.19 6.792h2.667v4.744h2.97v2.66h-2.97v7.372c0 .535.17.965.508 1.306.336.336.76.502 1.275.502.22 0 .458-.023.7-.072.25-.044.437-.1.575-.16l.216-.055v2.66c-.59.193-1.286.292-2.086.292-2.772 0-4.152-1.482-4.147-4.44v-7.405H76.22v-2.66h1.49c.99 0 1.48-.596 1.48-1.78V6.792zM91.138 14.71c-.735.627-1.22 1.448-1.475 2.45h8.25c-.178-1.002-.625-1.823-1.348-2.45-.73-.634-1.635-.948-2.728-.948-1.07 0-1.97.314-2.7.947zm-1.607 4.963c.156 1.003.652 1.873 1.49 2.606.835.732 1.83 1.096 2.977 1.096.828 0 1.607-.188 2.325-.562.723-.375 1.23-.744 1.53-1.097l.452-.55 1.927 1.922c-.06.076-.148.186-.27.324-.12.138-.38.375-.773.71-.398.33-.817.623-1.264.882-.442.254-1.022.49-1.728.705-.713.222-1.44.332-2.198.332-2.02 0-3.76-.744-5.222-2.22-1.464-1.482-2.198-3.256-2.198-5.333 0-1.996.712-3.703 2.137-5.125 1.424-1.42 3.136-2.132 5.13-2.132 1.997 0 3.66.66 4.984 1.983 1.33 1.328 1.993 2.986 1.993 4.986l-.16 1.47H89.53zM114.563 11.536l3.258 9.773 3.275-9.774h3.12L119.31 25.75h-2.82l-3.263-9.47-3.263 9.47h-2.82l-4.904-14.214h3.12l3.274 9.773 3.257-9.774M130.182 14.71c-.734.627-1.22 1.448-1.474 2.45h8.25c-.178-1.002-.625-1.823-1.35-2.45-.728-.634-1.633-.948-2.726-.948-1.07 0-1.97.314-2.7.947zm-1.606 4.963c.154 1.003.65 1.873 1.49 2.606.834.732 1.828 1.096 2.976 1.096.828 0 1.607-.188 2.324-.562.724-.375 1.232-.744 1.53-1.097l.453-.55 1.925 1.922c-.06.076-.148.186-.27.324-.12.138-.38.375-.773.71-.398.33-.817.623-1.264.882-.442.254-1.022.49-1.728.705-.713.222-1.442.332-2.198.332-2.02 0-3.76-.744-5.223-2.22-1.464-1.482-2.198-3.256-2.198-5.333 0-1.996.712-3.703 2.137-5.125 1.423-1.42 3.135-2.132 5.127-2.132 2 0 3.66.66 4.986 1.983 1.33 1.328 1.993 2.986 1.993 4.986l-.16 1.47h-11.13zM153.636 21.987c.866-.925 1.303-2.038 1.303-3.344s-.438-2.424-1.304-3.35c-.873-.925-1.866-1.388-2.993-1.388-1.126 0-2.125.463-3.003 1.388-.873.926-1.31 2.044-1.31 3.35s.437 2.42 1.31 3.344c.878.926 1.877 1.388 3.003 1.388 1.127 0 2.12-.462 2.993-1.388m2.203-8.594c1.38 1.443 2.07 3.19 2.07 5.245 0 2.05-.69 3.795-2.083 5.24-1.385 1.442-3.014 2.164-4.89 2.164-.53 0-1.05-.066-1.558-.193-.51-.122-.94-.282-1.3-.47-.352-.186-.672-.38-.948-.578-.27-.198-.47-.352-.585-.468l-.216-.22v1.636h-2.958V5.013h2.96v8.154c.132-.132.325-.314.58-.534.247-.22.778-.513 1.578-.866.8-.358 1.618-.534 2.446-.534 1.888 0 3.522.716 4.903 2.16M3.538 7.553l5.61-4.016c.22-.16.447-.192.597-.192.185 0 .367.05.527.146l10.98 6.55c.31.184.502.52.502.88 0 .357-.192.693-.5.878l-3.364 2.006-6.023-3.593c-.656-.388-1.39-.583-2.122-.583-.847 0-1.693.26-2.41.774l-4.226 3.025v-5.04c0-.33.16-.64.428-.832zm18.713 8.85l-3.03 1.81 2.033 1.21c.31.186.5.522.5.88 0 .36-.19.695-.5.88l-10.983 6.55c-.158.094-.34.144-.525.144-.15 0-.376-.033-.6-.193l-5.608-4.016c-.268-.192-.428-.502-.428-.83V17.77c0-.33.16-.64.428-.832l5.608-4.016c.222-.16.448-.192.6-.192.185 0 .366.05.525.145l4.59 2.736-4.588 2.737c-.16.095-.34.145-.527.145-.15 0-.377-.033-.6-.192l-2.583-1.85-2.085 1.486v.84l2.857 2.045c.718.514 1.564.775 2.41.775.734 0 1.467-.194 2.123-.584l10.98-6.548c1.25-.745 2.016-2.09 2.016-3.543 0-1.454-.765-2.8-2.015-3.545L11.868.827c-.657-.39-1.39-.585-2.123-.585-.848 0-1.693.26-2.41.774l-5.61 4.017C.642 5.807 0 7.056 0 8.385v5.067c0 .788.283 1.51.694 2.16C.284 16.26 0 16.98 0 17.77v5.067c0 1.33.642 2.578 1.725 3.353l5.61 4.016c.717.513 1.562.774 2.41.774.732 0 1.466-.194 2.122-.586l10.98-6.547c1.25-.745 2.016-2.09 2.016-3.544 0-1.452-.765-2.797-2.015-3.543l-.597-.356z" />
</svg>