<svg width="150" height="28" viewBox="0 0 1556 283" 
  xmlns="http://www.w3.org/2000/svg">
  <path d="m407.01 69.703h-71.993v-42.503h196.797v42.503h-71.994v187.41h-52.81zm142.184-42.506h129.534c43.075 0 70.318 28.659 70.318 63.426 0 27.057-11.114 47.334-38.021 57.653v.658c25.901 6.755 33.315 30.247 35.004 53.765.993 14.478.322 41.858 10.082 54.424h-52.822c-6.047-14.515-5.711-36.73-8.406-55.07-3.701-24.151-13.46-34.779-40.033-34.779h-52.822v89.849h-52.834zm52.834 104.017h57.863c23.878 0 36.333-9.672 36.333-32.88 0-22.189-12.455-31.862-36.333-31.862h-57.863zm172.99 125.908v-229.926h52.835v229.926zm289.554-86.943c0 62.147-38.37 92.408-102.614 92.408-64.941 0-102.279-29.627-102.279-92.408v-142.982h52.822v142.982c0 25.119 6.717 49.891 49.457 49.891 37.674 0 49.784-15.446 49.784-49.891v-142.982h52.83zm30.72-142.982h74.35l56.19 158.119h.67l53.14-158.119h74.36v229.926h-49.45v-162.949h-.68l-58.87 162.949h-40.7l-58.87-161.347h-.7v161.347h-49.44v-229.926zm290.87-.004h168.89v42.504h-116.07v53.145h100.59v39.275h-100.59v95.014h-52.82zm-1253.12 218.368c11.551 21.503 40.6 25.536 64.013 24.896.157.857.408 1.651.718 2.458-24.975 7.161-90.554 22.362-105.906-10.398-15.77-33.592 30.894-92.624 43.66-106.337.738.297 1.523.507 2.369.667-3.701 18.32-13.602 72.398-4.854 88.714zm94.834-44.386c24.438.774 42.452-22.334 53.613-42.887.798.272 1.632.482 2.465.593-6.275 25.178-25.875 89.488-61.958 86.383-37.024-3.154-64.877-73.036-70.402-90.909.631-.485 1.213-1.07 1.784-1.728 14.027 12.398 55.987 47.965 74.498 48.548zm8.939-104.164c12.899-20.754 1.851-47.907-10.401-67.82.642-.559 1.224-1.169 1.748-1.853 18.712 18.017 64.678 67.126 43.947 96.769-21.266 30.451-95.783 19.6-114.06 15.428-.121-.77-.312-1.576-.599-2.396 17.752-5.959 69.601-24.419 79.365-40.128zm-85.905-59.832c-11.552-21.541-40.601-25.537-64.002-24.909-.168-.856-.419-1.663-.73-2.457 24.988-7.162 90.554-22.338 105.918 10.41 15.771 33.592-30.893 92.611-43.659 106.324-.738-.296-1.524-.519-2.37-.667 3.69-18.32 13.603-72.422 4.843-88.701zm-94.831 44.373c-24.439-.774-42.453 22.322-53.602 42.9-.799-.297-1.632-.495-2.477-.605 6.274-25.191 25.875-89.501 61.959-86.396 37.023 3.166 64.888 73.036 70.4 90.934-.63.473-1.225 1.057-1.771 1.716-14.039-12.386-55.987-47.978-74.509-48.549zm-8.933 104.17c-12.898 20.755-1.85 47.895 10.389 67.808-.63.572-1.224 1.169-1.747 1.84-18.701-18.016-64.667-67.1-43.936-96.768 21.253-30.426 95.772-19.576 114.048-15.404.108.758.324 1.565.599 2.384-17.74 5.959-69.589 24.42-79.353 40.14z" />
</svg>