<svg height="215" viewBox="0 0 710 215" width="710" 
  xmlns="http://www.w3.org/2000/svg">
  <path d="m250.037 396.075-3.373-11.588-23.93 5.497-3.373 13.137-12.527 2.878 20.718-76.462 14.294-3.284 20.638 66.961-12.447 2.859zm-15.338-54.957-8.914 34.943 17.747-4.077zm80.089 40.082v-71.703l21.12-4.852c16.783-3.856 28.427 7.767 28.427 29.375 0 21.607-11.644 38.472-28.427 42.328zm11.403-16.057 9.717-2.232c10.6-2.435 16.783-14.068 16.783-26.216 0-12.685-5.782-21.139-16.783-18.612l-9.717 2.232v44.827zm59.639-.263v-71.703l37.903-8.707v13.115l-26.5 6.088v15.588l25.938-5.959v13.115l-25.938 5.959v16.663l26.5-6.088v13.223l-37.903 8.707zm56.587-23.104 6.183-13.03c3.774 4.4 9.636 7.461 17.024 5.764 6.264-1.439 9.315-6.117 9.315-10.202 0-5.375-4.658-6.133-10.841-6.647-8.753-.677-19.995-1.319-19.995-17.337 0-11.933 7.709-23.378 20.317-26.275 8.512-1.955 15.579-.139 20.879 5.201l-6.344 12.637c-4.336-4.379-10.118-5.523-15.338-4.324-5.139 1.181-7.87 4.818-7.87 9.118 0 4.837 4.497 5.309 10.68 5.824 8.833.658 20.076 1.623 20.076 17.533 0 13.115-6.986 24.61-21.441 27.93-10.279 2.361-17.667-.564-22.646-6.193zm65.179-4.868v-71.702l11.403-2.62v71.702zm32.817-43.336c0-22.683 12.849-40.039 28.508-43.636 11.082-2.546 18.068 3.052 22.164 10.603l-9.476 9.057c-2.489-4.481-7.067-7.407-12.688-6.115-9.717 2.232-16.783 13.853-16.783 27.398s7.067 21.919 16.783 19.687c4.899-1.125 9.235-4.809 11.564-8.139v-8.707l-14.294 3.284v-13.115l25.536-5.866v27.412c-5.461 9.424-13.089 16.552-22.806 18.784-15.659 3.597-28.508-8.071-28.508-30.646zm110.711 10.364-25.536-42.294v48.16l-11.403 2.62v-71.702l11.724-2.693 24.814 40.74v-46.44l11.403-2.62v71.702zm65.313-25.109 6.183-13.03c3.774 4.4 9.636 7.461 17.024 5.764 6.264-1.439 9.315-6.117 9.315-10.202 0-5.375-4.658-6.133-10.841-6.647-8.753-.677-19.995-1.319-19.995-17.337 0-11.933 7.709-23.378 20.317-26.275 8.512-1.955 15.579-.139 20.879 5.201l-6.344 12.637c-4.336-4.379-10.118-5.523-15.338-4.324-5.139 1.181-7.87 4.818-7.87 9.118 0 4.838 4.497 5.309 10.68 5.824 8.833.658 20.076 1.623 20.076 17.533 0 13.115-6.986 24.61-21.441 27.93-10.279 2.361-17.667-.564-22.646-6.193zm76.984-7.58v-58.265l-15.659 3.597v-13.438l42.721-9.814v13.437l-15.579 3.579v58.265l-11.483 2.638zm47.754-39.565v-43.108l11.564-2.656v42.57c0 9.998 4.095 15.937 12.447 14.018 8.191-1.882 12.286-9.702 12.286-19.7v-42.57l11.564-2.656v43c0 17.845-7.629 31.745-23.85 35.471-16.382 3.763-24.011-6.739-24.011-24.369zm71.845 12.091v-71.702l21.12-4.852c16.783-3.856 28.427 7.767 28.427 29.375s-11.644 38.472-28.427 42.328l-21.12 4.852zm11.403-16.057 9.717-2.232c10.6-2.435 16.783-14.068 16.783-26.216 0-12.685-5.782-21.139-16.783-18.612l-9.717 2.232v44.827zm59.639-.263v-71.702l11.403-2.62v71.702zm32.817-43.336c0-21.608 11.805-39.799 27.946-43.507 16.221-3.726 28.026 9.042 28.026 30.649 0 21.608-11.805 39.799-28.026 43.526-16.141 3.708-27.946-9.06-27.946-30.668zm44.247-10.165c0 13.33-6.424 25.018-16.302 27.287-9.877 2.269-16.221-6.486-16.221-19.816 0-13.438 6.344-25 16.221-27.269s16.302 6.36 16.302 19.798zm-1007.045 5.402v52.405l51.065-11.731v-52.405c0-13.228-1.206-14.986-14.676-13.673v-10.684l68.556-15.749v10.684c-13.269 4.829-14.475 7.141-14.475 20.37v123.126c0 13.228 1.206 14.986 14.475 13.719v10.684l-68.556 15.749v-10.684c13.47-4.875 14.676-7.187 14.676-20.416v-54.949l-51.065 11.731v54.949c0 13.228 1.206 14.986 14.475 13.719v10.684l-68.556 15.749v-10.684c13.47-4.875 14.676-7.187 14.676-20.416v-123.126c0-13.228-1.206-14.986-14.676-13.673v-10.684l68.556-15.749v10.684c-13.269 4.829-14.475 7.141-14.475 20.37zm170.686 114.188c-33.172 7.62-56.091-13.826-56.091-55.546 0-42.738 23.321-79.131 56.292-86.705 33.172-7.62 56.091 13.826 56.091 55.546 0 42.738-23.321 79.131-56.292 86.705zm1.005-10.915c12.063-2.771 15.882-23.237 15.882-55.545 0-41.72-4.624-67.878-17.692-64.876-12.063 2.771-15.882 23.237-15.882 55.545 0 41.72 4.825 67.832 17.692 64.876zm175.31-139.231v77.844c0 8.649.402 12.373 6.835 11.149l4.825-.854v9.921l-42.42 18.649-7.037 1.616.603-24.815c-7.238 13.365-17.893 28.786-35.786 32.897-17.893 4.11-30.358-6.509-30.358-35.764v-62.326c0-7.377-1.407-12.396-7.841-12.954l-3.016-.579v-9.158l42.42-21.447 6.634-1.524-1.206 32.585v62.326c0 12.974 4.021 19.428 13.671 17.211 6.031-1.386 10.052-4.344 15.48-8.644v-73.011c0-7.377-1.407-12.396-7.64-13l-3.016-.579v-9.158l42.219-21.401 6.634-1.524-1.005 32.539zm59.911 95.88c-16.687 3.833-29.553 1.701-38.198-4.199l-1.206-34.066 9.248-2.124c4.021 19.936 14.475 33.307 30.157 29.705 9.449-2.171 17.089-9.777 17.089-21.224 0-12.974-7.841-15.497-21.512-17.954-22.718-3.685-34.982-12.824-34.982-38.772 0-28.492 17.29-48.49 41.415-54.033 13.671-3.141 25.935-1.379 34.58 3.758v30.527l-8.645 1.986c-2.413-16.236-11.258-28.958-25.332-25.725-8.645 1.986-14.475 9.431-14.475 19.098 0 10.684 6.031 13.624 19.3 16.426 24.125 4.634 37.193 12.062 37.193 39.79 0 29.764-17.491 50.572-44.632 56.807zm108.162-167.052c29.151-6.697 44.029 13.29 44.029 45.597v6.36l-64.133 14.733c-.402 30.365 12.867 46.142 31.162 41.939 12.867-2.956 22.316-10.978 29.956-25.452l3.82 2.175c-5.428 29.23-20.909 51.357-46.24 57.176-29.755 6.835-52.271-13.177-52.271-55.915 0-45.282 24.728-79.963 53.679-86.614zm-2.413 11.239c-11.057 2.54-16.486 19.814-17.491 43.703l32.167-7.39c0-24.676-3.82-38.808-14.676-36.314zm144.35-55.038v52.405l51.065-11.731v-52.405c0-13.228-1.206-14.986-14.676-13.673v-10.684l68.556-15.749v10.684c-13.269 4.829-14.475 7.141-14.475 20.37v123.126c0 13.228 1.206 14.986 14.475 13.719v10.684l-68.556 15.749v-10.684c13.47-4.875 14.676-7.187 14.676-20.416v-54.949l-51.065 11.731v54.949c0 13.228 1.206 14.986 14.475 13.719v10.684l-68.556 15.749v-10.684c13.47-4.875 14.676-7.187 14.676-20.416v-123.126c0-13.228-1.206-14.986-14.676-13.673v-10.684l68.556-15.749v10.684c-13.269 4.829-14.475 7.141-14.475 20.37zm170.686 114.188c-33.172 7.62-56.091-13.826-56.091-55.546 0-42.738 23.321-79.131 56.292-86.705 33.172-7.62 56.091 13.826 56.091 55.546 0 42.738-23.321 79.131-56.292 86.705zm1.005-10.915c12.063-2.771 15.882-23.237 15.882-55.545 0-41.72-4.624-67.878-17.692-64.876-12.063 2.771-15.882 23.237-15.882 55.545 0 41.72 4.825 67.832 17.692 64.876zm175.31-139.231v77.844c0 8.649.402 12.373 6.835 11.149l4.825-.854v9.921l-42.42 18.649-7.037 1.616.603-24.815c-7.238 13.365-17.893 28.786-35.786 32.897-17.893 4.11-30.358-6.509-30.358-35.764v-62.326c0-7.377-1.407-12.396-7.841-12.954l-3.016-.579v-9.158l42.42-21.447 6.634-1.524-1.206 32.585v62.326c0 12.974 4.021 19.428 13.671 17.211 6.031-1.386 10.052-4.344 15.48-8.644v-73.011c0-7.377-1.407-12.396-7.64-13l-3.016-.579v-9.158l42.219-21.401 6.634-1.524-1.005 32.539zm59.911 95.88c-16.687 3.833-29.553 1.701-38.198-4.199l-1.206-34.066 9.248-2.124c4.021 19.936 14.475 33.307 30.157 29.705 9.449-2.171 17.089-9.777 17.089-21.224 0-12.974-7.841-15.497-21.512-17.954-22.718-3.685-34.982-12.824-34.982-38.772 0-28.492 17.29-48.49 41.415-54.033 13.671-3.141 25.935-1.379 34.58 3.758v30.527l-8.645 1.986c-2.413-16.236-11.258-28.958-25.332-25.725-8.645 1.986-14.475 9.431-14.475 19.098 0 10.684 6.031 13.624 19.3 16.426 24.125 4.634 37.193 12.062 37.193 39.79 0 29.764-17.491 50.572-44.632 56.807zm108.162-167.052c29.151-6.697 44.029 13.29 44.029 45.597v6.36l-64.133 14.733c-.402 30.365 12.867 46.142 31.162 41.939 12.867-2.956 22.316-10.977 29.956-25.452l3.82 2.175c-5.428 29.23-20.909 51.357-46.24 57.176-29.755 6.835-52.271-13.177-52.271-55.915 0-45.282 24.728-79.963 53.679-86.614zm-2.413 11.239c-11.057 2.54-16.486 19.814-17.491 43.703l32.167-7.39c0-24.676-3.82-38.808-14.676-36.314z"/>
</svg>