<svg width="200" height="50" viewBox="0 0 200 50" xmlns="http://www.w3.org/2000/svg">
    <title>Combined Shape</title>
    <path d="M14.73 28.291c.257.217.235.515.49.69.222-.203.428-.423.7-.69h-1.19zm4.261 10.522c.255-.191.219-.405.185-.615-.242-.173-.241-.178-.592-.167-.328.429-.327.431.407.782zm-12.935-5.237c-.29.138-.455-.072-.704-.106v1.259c-.105.115-.25.194-.097.344l.175.016c.036-.523.421-.907.626-1.513zm16.7.041c-.325.153-.337.493-.468.76.146.253.436.13.594.284.376-.343.257-.793.453-1.136-.263-.117-.373.223-.579.092zm-13.305 10.962h-1.197c.053.427.36.644.59.891h.607v-.891zm-3.747-5.722c-.244.585-.322 1.208-.537 1.9.548-.258 1.015-.384 1.429-.7.271-.207.555-.441.889-.573.654-.259 1.355-.273 2.078-.435.139-.171.351-.34.494-.597.146-.261.414-.46.646-.666.198-.176.239-.505.568-.555.8.07 1.55-.085 2.159-.618.237-.49.456-.935.966-1.216.513-.283 1.008-.633 1.436-1.032 1.307-1.217 2.543-2.503 3.459-4.069l-1.595-.959c-.929.092-1.922-.135-2.893.145-.42-.102-.795.198-1.211.133-.216.203-.506.065-.737.151-.828.309-1.709.462-2.501.882-.382.203-.65.173-1.126-.004-.366-.136-.72-.307-1.093-.417-.442-.131-.904-.282-1.275.046l-.462 1.875c.018.175.215.213.261.358.077.231-.121.415-.117.613.012.589-.241 1.109-.437 1.625-.174.457-.385.948-.824 1.259l-.076.089v.412l.32.32-.73.731c.037.41-.099.855.184 1.243.205.043.405.045.588-.079l.138.138zm-5.703-1.372c.084.015.115-.037.133-.106.107-.403.144-.475.382-.747.075-.289-.047-.56.132-.844.133-.211-.078-.559.152-.799-.063-.566.22-1.073.295-1.619.065-.477.233-.964.4-1.427.133-.368.258-.754.337-1.12.083-.384.144-.8.193-1.201.1-.817.246-1.65.774-2.341 0-.242.027-.491-.007-.73-.036-.253.141-.44.146-.679.007-.34.265-.599.334-.927.099-.468.396-.89.326-1.398-.013-.097.035-.156.089-.231.125-.172.033-.323-.089-.458.067-.272.217-.496.466-.707-.35-.333-.809-.511-.992-.933-.175-.403-.317-.827-.255-1.373.864-.928 1.754-1.932 2.614-2.961.165-.876.33-1.757.549-2.633.211-.845.448-1.683.692-2.518.248-.848.549-1.682.849-2.515.292-.811.612-1.613.918-2.415.531 0 1.044.03 1.551-.009.49-.037.842.173 1.112.529l.424.558c.124.158.241.352.201.58-.023.129.05.204.125.268-.237.312-.039.784-.456.982l.52 1.085h1.362c1.542-1.713 3.41-2.772 5.837-2.502.948 1.252 1.466 2.738 2.04 4.213-.263.272-.315.698-.337 1.069-.025.433-.105.854-.169 1.275-.065.423-.294.788-.644 1.072v1.103c-.682.526-1.264 1.202-1.998 1.706l-.094.094c-.458.566-1.127.9-1.579 1.456h-.678c-.566.51-.805 1.242-1.297 1.837-.504.052-.975.288-1.382.599-.369.282-.608.705-.863 1.1-.113.175-.36.281-.205.597.274-.03.556.083.841.117.619.074 1.224-.057 1.833-.214.338-.088.685-.238 1.066-.178.318.05.612-.133.943-.142 1.216-.032 2.316.321 3.384.857.689.346 1.327.772 1.973 1.186.11.07.216.17.281.282.322.555.722 1.069.955 1.67.128.331.366.592.485.934.092.263-.085.583.19.787.034.548.303 1.037.395 1.569.089.514.264 1.002.404 1.5l.001.106c-.257.165-.369.485-.591.714-.226.233-.414.506-.587.765-.172.256-.474.346-.608.663-.114.269-.331.542-.575.768l-.572.692c-.247.223-.456.491-.714.698-.262.211-.38.52-.599.76-.215.236-.363.533-.632.737h-.388l-.402.403c-.514-.048-1.023.08-1.504.309-.446.212-.88.448-1.351.69v.573h-1.526c-.16.222-.03.442-.115.696h1.098c-.006.385-.246.575-.476.809h-2.039v.838c-.52.534-1.112.992-1.7 1.462-.318.254-.665.484-.946.787-.245.265-.533.429-.896.363l-.249.251c-.579.677-1.31 1.138-2.116 1.488-1.035.45-1.777 1.197-2.223 2.222-.054.125-.271.205-.107.422h-1.198l-1.206-1.214c-.52-.255-.972-.249-1.462-.22-.148-.623-.313-1.243-.437-1.871-.085-.431-.291-.834-.284-1.284-.207-.146-.097-.363-.121-.55-.012-.09-.003-.183-.135-.173v-.4l.195-.004c.306-.297.71-.441 1.045-.679.387-.276.854-.46 1.166-.876l-1.877-1.416-.133-1.039c.056-.322.001-.655-.143-.933-.098-.189-.109-.36-.121-.55-.005-.069-.047-.12-.131-.105v-1.201zm179.368 5.907c-.209-.197-.537-.299-.816-.423-.177-.078-.248-.167-.333-.329-.423-.802-.825-1.613-1.219-2.43-.059-.122-.115-.226-.105-.357.048-.65-.14-1.252-.348-1.857-.137-.399-.128-.856-.025-1.238.116-.435.152-.897.352-1.319l.169-.395c.151-.334.256-.658.256-1.03 0-.599.109-1.152.493-1.668.204-.272.303-.684.3-1.068-.004-.451.069-.872.215-1.31.128-.386.201-.803.313-1.205.204-.738.365-1.489.611-2.216.125-.373.1-.788.327-1.131.025-.723.416-1.344.573-2.032.208-.906.62-1.755.772-2.682.056-.344.273-.649.264-1.025-.008-.339.095-.678.152-1.007.101-.581.312-1.156.56-1.696.312-.678.476-1.403.748-2.092.143-.364.197-.76.419-1.134-.459-.811-1.216-1.408-1.696-2.183l.369-2.262c-.236-.276-.519-.353-.827-.402l.035-.19c.263-.259.436-.537.541-.915.103-.368.323-.746.707-.981.296.006.579-.25.908-.127.247-.249.472-.494.716-.721.952-.885 1.543-1.983 1.89-3.219.112-.401.233-.799.288-1.22.031-.224.103-.474.26-.691.179-.245.381-.502.388-.837h2c.115.278.397.404.567.65h.709l.236.363c.461 1.09.797 2.259 1.232 3.303l.144.085c.788-.076 1.556.226 2.344.135.683.23 1.411.171 2.109.371.493.142 1.004.256 1.505.393.769.21 1.319.667 1.674 1.341.228.433.472.865.608 1.349.084.303.151.619.183.917.068.638.107 1.303-.007 1.927-.092.5-.004 1.069-.373 1.507-.051.641-.359 1.18-.656 1.729-.323.595-.704 1.141-1.124 1.672-.313.395-.617.801-1.009 1.105-.557.433-1.04.936-1.539 1.426-.077.077-.175.105-.271.151-.649.311-1.295.636-1.921.99-.169.095-.276.025-.476.056l.453-.906h-1.576v.991l-2.249.496-.817.848v.823h1.011l1.011-1.011h1.035c-.479.345-.787.69-1.116 1.015l-.989.99-1.033 1.034h-2.277c-.109.162-.057.346-.047.512.029.399-.097.763-.281 1.085-.415.726-.644 1.479-.497 2.314l-.533.488c-.22.09-.341-.129-.499-.265-.339.627-.576 1.283-.777 1.957-.043.146-.061.285-.085.429-.033.206.047.41-.112.626-.1.136-.071.424.132.563-.083.178-.156.309-.359.29-.112.278-.361.544-.068.861-.057.49.173.887.355 1.321.141.34.117.769-.012 1.151-.137.41-.273.82-.425 1.224-.099.258.055.569-.176.794-.031.635-.363 1.195-.453 1.818-.015.107-.095.241-.076.361.095.595-.103 1.164-.153 1.745l-2.576 2.369zm17.641-28.715c-.351.15-.589.358-.787.618.028.144-.06.305.079.464l.708-.337v-.745zm-1.067.949c-.173.351-.437.237-.623.384-.324.256-.623.531-.915.818-.259.255-.501.523-.915.525-.076 0-.149.139-.213.203.152.426.275.821.307 1.37.368-.627.795-1.05 1.245-1.44.445-.387.785-.85 1.113-1.3v-.559zm-86.541-3.595c-.047.32-.263.476-.444.658-.187.187-.25.416-.329.666-.247.784-.378 1.604-.777 2.345-.468.87-.743 1.825-1.082 2.752-.261.714-.434 1.47-.92 2.088l-.096.157c-.562.393-.752 1.008-.929 1.615-.067.231-.263.447-.167.715.235.191.473-.008.576-.107.253-.241.578-.382.81-.642.118-.132.228-.298.379-.371.759-.367 1.336-1.009 2.126-1.393.247.206.554.175.852.159.765-.041 1.509.218 2.278.149.168-.015.338.153.544.126.171-.022.347-.005.543-.005-.051-.632.343-1.049.647-1.486.211-.303.335-.589.287-.939.39-.507.685-1.044.967-1.611.451-.91.691-1.892 1.112-2.81.239-.521.524-1.026.721-1.567.051-.141.188-.181.273-.415l-.002-.339c-.074-.764.196-1.467.462-2.144.348-.887.668-1.77.893-2.701.197-.814.481-1.636 1.331-2.14l1.449.467c.29.378.394.873.523 1.347.125.46.265.919.358 1.39.034.173.062.345.045.508-.064.634.075 1.239.293 1.817.063.166.095.317.117.485.085.658-.152 1.291-.145 1.909-.255.435-.438.871-.619 1.31-.037.09-.032.168-.036.251-.061 1.19-.653 2.836-1.601 3.671-.034.181.149.281.149.478 0 .495-.304 1.734-.592 2.362-.146.317-.325.627-.413.961-.09.342-.357.618-.35.993l-.135.141c-.107.118-.251.066-.372.055-.238-.021-.411.117-.569.237-.252.19-1.113 1.668-1.18 1.972-.039.181.068.396-.13.54l.191.192.661-.269c.237.196-.078.262-.064.406.016.154.057.339-.007.461-.23.434-.153.937-.373 1.381-.198.4-.261.868-.389 1.301-.157.534-.298 1.083-.412 1.63-.174.836-.474 1.625-.738 2.43-.148.453-.421.846-.537 1.314-.086.349-.416.544-.661.807h-.628c-.439.266-.506.721-.65 1.131-.123.349-.262.694-.362 1.05-.091.324-.19.643-.18.997.025.866.008 1.733.008 2.584l-.316.599c.274.078.492.127.698-.136v-.847h.829c-.073.353-.176.694-.208 1.04-.079.845-.565 1.551-.762 2.354-.069.281-.181.552-.236.834-.05.255.062.534-.049.781-.312.694-.596 1.402-.988 2.057l-.145.12c-1.009-.735-1.839-1.641-2.71-2.502-.147-.417-.546-.641-.772-1.01-.192-.312-.293-.64-.399-.971-.152-.473-.195-.975-.375-1.445-.059-.155-.035-.346-.029-.52.006-.178-.004-.344-.137-.472-.003-.158.18-.24.138-.419-.11-.46.083-.901.154-1.34.058-.353.211-.709.302-1.069.098-.388.236-.765.213-1.182-.024-.428-.057-.866.215-1.387.131-.155.443-.343.572-.833-.059-.851.277-1.742.626-2.659.356-.935.764-1.899.53-2.997l-.151-.151c-.265 0-.536.032-.796-.007-.401-.06-.761.123-1.142.168-.322.038-.654.209-.955.427-.225.163-.581.217-.904.215-.911-.006-1.821-.002-2.736-.002l-.179.186c-.061.758-.262 1.483-.473 2.208-.174.597-.329 1.199-.475 1.803-.088.363-.322.688-.282 1.084-.258.249.011.648-.255.895.015.732-.193 1.439-.3 2.152-.101.677-.104 1.387-.366 2.04l-.001.066c.077.613-.232 1.202-.125 1.81.046.263-.194.506-.012.759-.268.232-.061.544-.159.848-.175.09-.466-.093-.609.192-1.696-1.114-2.974-2.571-4.028-4.295l.001-.681c.009-.319-.022-.632.118-.951.115-.262-.101-.61.147-.872-.031-.476.095-.917.26-1.359.152-.405.257-.829.368-1.248.085-.322.121-.693 0-.968-.106-.243-.031-.47-.123-.711h-3.383c-.141-.325.028-.546.209-.751.284-.323.618-.586 1.018-.757.241-.103.432-.268.586-.469-.054-.291-.229-.501-.397-.644-.027-.284.203-.245.271-.26.26-.056.454-.209.659-.348.949-.643 1.742-1.419 2.185-2.512.203-.501.337-1.021.469-1.538.177-.689.332-1.384.434-2.095.112-.778.173-1.582.504-2.319-.034-.607.423-1.096.405-1.699.291-.367.367-.831.518-1.252.341-.948.773-1.859 1.09-2.817.212-.642.505-1.257.726-1.899.213-.621.515-1.211.722-1.833l.532-1.446c.163-.489.322-.975.506-1.458.212-.555.462-1.099.639-1.67.17-.55.428-1.078.545-1.637.112-.532.291-1.037.433-1.555.092-.336.249-.578.482-.81h1.596c.922.808 1.959 2.709 2.321 3.954.103.352.242.739.157 1.14-.034.161-.01.328.101.466-.17.108-.114.282-.098.423.028.25-.096.509.11.759.087.106.046.349.012.519-.134.669-.171 1.298-.074 1.791l.039.04zm2.335 31.178l-.273-.778v.778h.273zm3.775-15.471c.732-.164 1.131-.959.655-1.605-.15.538-.377 1.033-.655 1.605zm-13.933 3.018l-.097.008-.085-.237c-.289.303-.593.522-.629.977.163.052.052.326.231.376l.581-.578v-.546zm8.865 11.419c.353-.07.535-.382.866-.471l-.003-1.317-.067-.099h-.153c-.215.576-.564 1.091-.877 1.636l.235.252zm3.472-8.308c.268-.532.528-1.067.806-1.594.281-.534.463-1.12.556-1.691.094-.575.351-1.148.265-1.771-.235.089-.218.301-.325.433-.448.555-.864 1.759-.962 2.523-.023.179-.171.288-.155.476.014.161.083.358-.105.485l-.081 1.139zm51.791-1.468c-.071.35.095.694-.129 1.034-.161.245-.339.704-.489.859l-.652.657c-.473 0-.939 0-1.395-.008-.137-.425-.333-.814-.727-1.109l-.523 1.101c.461 0 .851 0 1.249.008-.191.342-.623.402-.827.825v.783c-.417.004-.741-.027-.952-.474-.133-.284-.452-.48-.696-.725l-.603.638v1.626c-1.124.684-2.32 1.305-3.506 1.973-.327-.066-.532-.484-.937-.369-.343-.326-.644-.022-.909.109-.44.217-.756.149-1.155-.129-.724-.505-1.42-1.029-2.048-1.655-.288-.286-.676-.48-.92-.814-.496-.678-1.153-1.203-1.692-1.835-.445-.525-.723-1.138-.855-1.848-.109-.589-.027-1.232-.375-1.772.091-.44-.149-.842-.14-1.278.021-1.022.044-2.046-.004-3.066-.047-.99.117-1.963.16-2.945.023-.49.245-.966.325-1.458.124-.763.455-1.465.603-2.221.091-.461.267-.909.445-1.347.424-1.048.885-2.079 1.401-3.087.179-.351.381-.701.595-1.013.381-.553.667-1.166 1.101-1.687.363-.435.668-.92.995-1.385.431-.609.939-1.156 1.373-1.763.153-.214.372-.38.559-.57.367-.372.68-.815 1.061-1.142.381-.326.737-.677 1.093-1.024.816-.794 1.74-1.445 2.673-2.084.359-.245.74-.458 1.121-.669.932-.517 1.913-.857 2.998-.804l.631.001c.965.689 1.77 1.606 2.738 2.309l.001.821c.021.803.36 1.502.805 2.13.708.997 1.545 1.892 2.444 2.722.615.567 1.131 1.221 1.689 1.838.351.387.593.867.769 1.345.119.326.291.637.369.982l.275.951c.069.284.157.589.155.859-.005.463.205.883.167 1.346-.039.464.003.933-.012 1.399-.016.52.2 1.013.168 1.534l.067.07c-.409 1.042-.868 2.05-1.224 3.172-.896.661-1.071 1.672-.999 2.798-.463.006-.641-.441-1.063-.481-.329.27-.488.742-.733 1.151-.416.692-.952 1.249-1.585 1.749-.419.33-.913.559-1.283.975v.798l-.559.467c-.284-.092-.639-.308-1.043-.269.419-.771.419-.771.337-1.437h-.609c-.216.397-.197.869-.419 1.242.125.122.249.038.34.083.091.044.144.169.351.112zm-9.351 5.642h-1.656c.54.405 1.067.626 1.656.794v-.794zm7.269-4.166c.34-.344.839-.478 1.145-.875l.091-.584c-.523-.026-.924.396-1.407.423v.864l.171.171zm3.92-11.964c.58-1.131 1.104-2.297 1.768-3.355l-3.137-4.695c-.24.029-.292.208-.424.278-.392-.02-.392-.02-.823-.267-.835 0-.835 0-1.525.496-.205.147-.397.323-.621.432-.891.433-1.615 1.09-2.34 1.741-.436.392-.808.851-1.196 1.293-.728.832-1.32 1.74-1.813 2.72l-.532 1.046c-.167.33-.432.518-.797.538-.136.008-.252.024-.341.133l-.519-.519c-.355-.094-.641.214-.959.121-.373.445-.408.996-.753 1.403l1.219.384c.101.357-.14.607-.251.895-.347.901-.709 1.795-1.039 2.701-.295.812-.569 1.632-.817 2.459-.071.236-.009.496-.131.747-.119.244.176.462.139.714.597-.16 1.176-.329 1.776-.356.328-.015.613-.117.904-.239.504-.211.924-.566 1.395-.818.811-.434 1.549-.974 2.318-1.462 1.211-.766 2.436-1.499 3.704-2.162.404-.211.796-.447 1.177-.696.576-.376 1.111-.807 1.577-1.31.293.087.479-.12.544-.294.247-.646.819-.999 1.237-1.487.113-.131.247-.227.411-.278l-.151-.166zm-28.035-.311c-5.337 4.011-5.87 4.011-6.435 4.011-.266.861-.629 1.693-.726 2.627-.068.649-.403 1.277-.995 1.631-.704.421-.989 1.022-.977 1.799.007.441-.062.813-.351 1.197-.306.407-.443.938-.452 1.473l-.001.753c.118.366.415.213.641.282.099.309-.122.511-.251.765.159.231.187.499.112.778-.237.873-.571 1.728-.503 2.66.027.368-.165.702-.288 1.014-.335.844-.541 1.7-.668 2.597-.051.361-.039.732-.122 1.079-.092.384-.127.76-.117 1.177l-.374.35c-.337.283-.69.322-1.04.08-.704-.488-1.426-.947-2.01-1.595-.534-.592-.841-1.257-.842-2.054 0-.498-.196-.94-.409-1.364-.285-.566-.293-1.162-.244-1.759.013-.164.088-.36.167-.525.292-.613.531-1.231.495-1.934-.012-.239.086-.491.165-.727.159-.475.281-.952.376-1.448.174-.913.383-1.823.69-2.71.198-.57.387-1.157.363-1.787-.025-.641.237-1.23.464-1.806.252-.639.436-1.289.605-1.951.199-.777.357-1.571.781-2.278.098-.164.179-.376.151-.606-.03-.239-.007-.485-.007-.718.313-.292.278-.704.389-1.053.349-1.101.685-2.206 1.018-3.311.119-.393.199-.813.345-1.193.141-.366.121-.779.366-1.119.084-.117.013-.346.013-.468l-1.501-1.998c.247-.292.046-.709.303-1.006-.082-.37.301-.69.069-1.093-.338-.168-.688-.406-.942-.703l1-1.001v-.764c.108-.188.292-.254.533-.345.573.004 1.091-.295 1.564-.706.345-.3.573-.678.809-1.064.532-.872.831-1.834 1.183-2.779l.11-.554c.32-.797.297-.807 1.232-1.742l3.045 1.098c.316 1.178.799 2.296 1.133 3.408.664.165 1.295.15 1.913.218.404.044.808.117 1.215.099.265-.012.477.212.744.139.292-.079.532.13.812.141.248.01.516.074.727.167 1.036.455 1.994 1.036 2.581 2.061.409.718.699 1.467.677 2.323-.015.625-.016 1.237-.367 1.735-.149.653-.184 1.277-.392 1.888-.199.583-.5 1.09-.824 1.593-.255.395-.528.776-.976.99-.1.048-.187.156-.247.255-.524.862-1.121 1.665-1.846 2.37-.125.122-.257.214-.417.283-.941.404-1.708 1.104-2.618 1.561-.152.076-.26.24-.38.371-.663.725-1.433 1.331-2.209 1.921-.641.489-1.347.901 2.741-2.726 4.95-4.367 4.642-4.674 4.736-5.041-.597.018-1.013.273-1.048 1.03.391 0 .781 0-3.688 4.011zm3.061-3.86c-.097.09-.097.179 0 .269.096-.09.096-.179 0-.269zm-.219.604c.172.09.291.086.436-.006-.163-.084-.28-.09-.436.006zm-3.696 2.065c-.028.357-.041.713.027 1.187.237-.311.585-.178.761-.455.147-.228.349-.429.212-.732h-1zm3.628-1.978h-.812c-.444.513-1.012.869-1.367 1.42-.025.237.063.383.353.441.847-.326 1.225-1.158 1.825-1.86zm-3.726 2.939l-2.525.545c-.277.094-.143.326-.223.457-.197.197-.409.367-.564.578-.132.18-.289.401-.199.637.083.217.121.5.415.566.541-.44 1.111-.83 1.589-1.311.479-.483 1.149-.775 1.507-1.472zm-89.092 19.044c-.162-.291-.233-.517-.293-.771-.128-.54-.113-1.076-.112-1.616 0-.139-.059-.232-.127-.35-.402-.692-.345-1.421-.116-2.152.175-.56.313-1.122.394-1.709.091-.661.197-1.326.33-1.985.131-.647.376-1.225.65-1.803.051-.108.073-.203.065-.306-.063-.74.249-1.401.451-2.082.143-.48.312-.939.379-1.45.059-.449.095-.921.245-1.358l.351-.721c.072-.191.214-.355.182-.595-.112-.826.273-1.576.394-2.367.21-.139.051-.403.152-.532.131-.167.136-.331.105-.489-.038-.193.206-.286.11-.519-.312 0-.64.01-.967-.003-.34-.013-.654-.189-1.012-.138-.315.045-.627.016-.95.12-.302.097-.665.057-.991.011l-.944.135-1.011.138c-.337-.073-.611.227-.989.117-.323-.937-.836-1.835-1.101-2.833-.343-.374-.228-.925-.508-1.323-.03-.826-.371-1.646-.033-2.482.054-.134.008-.308.008-.482l.498-.46h6.629l.774-.8h1.569l.975-.67c.593-.404 1.136-.87 1.495-1.494.243-.424.445-.89.563-1.363.194-.776.581-1.452.955-2.14.282-.52 1.15-1.32 1.633-1.5.167-.062.327-.058.495.012.226.093.398.244.544.432.149 1.216.714 2.277 1.238 3.354.171.351.357.696.559 1.087.42.103.82-.159 1.214-.293.883-.3 1.782-.526 2.677-.776.915-.256 1.873-.351 2.754-.747.224-.1.519-.039.795-.053.204-.107.419-.233.644-.333.178-.079.347-.078.544.028.489.266 1.027.414 1.551.598.444.156.821.4 1.127.842.312.452.678.905 1.1 1.286.208.188.389.395.47.72-.319.227-.388.591-.457.974-.068.38-.015.369.019 1.041.028.56.416 1.041.267 1.636h-1.375c-.101.271-.137.548-.316.749-.39.172-.783.227-1.195.212-.341-.012-.674-.004-1.016.113-.313.107-.692-.078-1.005.15-.42-.101-.817.084-1.206.158-.818.155-1.652.221-2.459.478-.449.143-.913.252-1.358.427-.422.166-.808.373-1.097.73-.18.223-.5.242-.61.487l-1.161-.409c-.549.286-1.143.616-1.757.904-.249.117-.391.27-.515.514-.385.753-.689 1.537-.985 2.327-.097.259.054.569-.181.792.087.483-.274.92-.103 1.398-.341.078-.476.354-.697.524 0 .56.014 1.115-.007 1.669-.008.231.101.478-.08.699-.137.167.062.448-.18.591-.051.432-.327.718-.6.985-.395.007-.268-.507-.537-.529l-.597.593v5.213c-.166.157-.453-.064-.62.245-.069-.396-.246-.713-.177-1.043-.08-.1-.147-.073-.223-.068l-.763 2.84.432.31c.156-.046.207-.371.517-.36.109.906.023 1.783-.271 2.65-.192.567-.329 1.153-.495 1.729-.114.397-.094.809-.147 1.21-.137 1.034-.165 2.098-.653 3.059-.094.185-.134.402-.325.548-.373.021-.723.018-1.081-.234-.335-.237-.755-.391-1.206-.274-.411-.624-.796-1.247-1.063-1.918-.161-.403-.27-.861-.181-1.303zm7.069-13.859c.446-.067.733-.314.783-.676.033-.237.029-.488-.264-.531l-.519.524v.683zm30.566-20.94c.598-.07 1.14.047 1.642.381.202.135.451.197.671.307.783.393 1.033.758 1.241 1.663.11.482.35.923.585 1.357.419.777.691 1.583.612 2.482-.02.221-.003.444-.003.673-.328.352-.812.397-1.222.584-.697.319-1.358.701-2.011 1.091-.509.304-.965.706-1.407 1.106-.51.462-.973.975-1.468 1.454-.635.615-1.099 1.363-1.607 2.074-.101.141-.252.235-.308.418h-.735c-.914 1.513-1.83 3.006-3.215 4.143-.276.013-.117-.372-.387-.402h-.236c-.535.492-.915 1.073-1.006 1.814.181.084.333.047.482.04l1.075-1.076c.097.314.011.609.064.904-.553.364-.804.934-1.083 1.485-.273.537-.439 1.139-.92 1.553-.029.274-.286.426-.31.749-.032.45-.29.87-.877.929v-.449l-.234-.398c-1.025.618-1.374 1.479-1.224 2.619.316-.097.302-.51.547-.532l.592-.459c.012.352.028.658-.068 1.011-.204.749-.584 1.406-.917 2.09-.238.49-.326 1.023-.463 1.543-.188.712-.089 1.425-.135 2.208.26-.089.487.072.717-.116.083-.068.253-.057.377-.04.615.087 1.205-.119 1.811-.15.234-.012.453-.197.691-.247l1.278-.314c.442-.099.916-.197 1.338-.464.378-.24.873-.192 1.279-.158.399-.205.74-.405 1.032-.702.351-.357.619-.319 1.18.054.08.117.03.252.039.38l.002.329-.191.191c-.927-.023-1.754.311-2.591.663-.684.288-1.339.629-2.011.937l-.258.179v.746h1.772c1.078-.778 2.19-1.445 3.504-1.723.495-.104 1.004-.144 1.487-.274.7-.188 1.417-.32 2.104-.547.406-.133.802-.248 1.233-.242.839.011 1.679.003 2.509.003.049.152-.11.137-.093.238-1.01.059-1.946.377-2.933.504l.547 1.614c-.366.15-.715.355-1.09.43-.398.079-.674.438-1.097.416-.446.304-.945.516-1.412.781-.784.445-1.551.935-2.42 1.233-.443.152-.886.322-1.323.505-.808.339-.986.439-1.359 1.171-.103.203-.201.412-.334.593-.125.171-.401.166-.478.351l-2.935.451c-.784-.584-1.651-.915-2.395-1.45-.621-.087-1.099-.618-1.784-.566-.121-.323-.293-.633-.326-1.022-.661-.555-1.188-1.26-1.525-2.07-.298-.715-.619-1.4-1.087-2.02-.113-.149-.189-.356-.189-.59-.001-.448-.195-.885-.123-1.345l-.029-.119c-.239-.32-.314-.716-.497-1.072.123-.623.419-1.192.724-1.751l.096-.625c.155-.212.019-.422.061-.59.125-.496-.113-1.047.266-1.504.157-.19.203-.452.186-.722-.045-.733.25-1.395.487-2.063l1.115-2.872c.301-.853.619-1.711 1.443-2.318.263-.083.46.246.744.287l1.467-2.943h.827c.138-.307-.171-.344-.231-.523-.168-.499-.184-.809.065-1.336.304-.644.699-1.23 1.116-1.809.319-.444.674-.862.967-1.328.17-.269.406-.505.617-.737.382-.418.675-.914 1.113-1.281.524-.438.874-1.038 1.37-1.496 1.043-.964 2.066-1.945 3.246-2.762.657-.455 1.364-.85 1.969-1.384.066-.059.204-.049.261-.142zm-8.86 19.274l-.25.25c.022.206-.123.488.25.568v-.818zm-4.365 8.416c.273.189.572.23.905.139.041-.41-.192-.763-.144-1.264l-.76 1.125zm-.381-11.008c-.303.304-.29.716-.491 1.025-.212.325-.22.736-.484 1.043.31.138.541-.031.784-.139-.007-.206.174-.284.263-.393.034-.603.219-1.114.748-1.536h-.82zm-43.049 12.888c.144-.556.428-.984.506-1.523l.27-1.822c.114-.757.179-1.538.475-2.263.031-.076.043-.172.029-.253-.095-.529.171-1.023.142-1.546-.009-.164.095-.326.149-.47.185-.492.278-.997.394-1.505.212-.926.261-1.901.747-2.755.081-.142.029-.3.036-.451.024-.495-.036-.989.114-1.484.054-.177.118-.359.189-.524.199-.461.363-1.016.367-1.462.68-.659 1.521-.799 2.493-.697.522.716 1.418 1.026 2.148 1.566.287.212.526.459.761.709.128.136.224.341.202.581-.032.352-.008.709-.008 1.017l.865 1.643c-.409.13-.736.269-.865.843 0 .257-.016.701.005 1.144.018.372-.088.675-.394.925.31.426.322.837.054 1.318-.177.318-.312.71-.175 1.082-.65.616-.735 1.366-.685 2.148-.476.52-1.087.861-1.589 1.316-.017.296.057.633-.072.847-.159.261.086.594-.21.786l-.001.065c.071.569-.155 1.107-.145 1.679.032 1.776.012 3.553.012 5.328.159.058.09.243.194.324.16-.085.202-.256.281-.389h.297v1.56l-.309.279-.06-.066-.003-.552h-.655v1.79c.243.183.4-.082.613-.094.098-.196.002-.425.059-.641h.597c.089.1.205.164.191.33-.02.243-.007.489-.005.733.006.658-.093 1.33.343 1.969h-2.149c-.411-.223-.379-.803-.808-1.037-.112.142.02.408-.28.512h-1.151c-.634-.446-1.273-.919-1.818-1.511-.241-.262-.385-.528-.417-.901-.037-.431-.111-.89-.306-1.267-.212-.41-.109-.876-.346-1.259.072-.569-.186-1.106-.143-1.679.042-.552-.087-1.132.032-1.661.176-.788.058-1.569.109-2.35.008-.129.03-.27-.082-.331zm12.964-32.916c.257.298.328.636.504.915l.193.99c.17.302-.188.639-.119.981-.333.116-.627.257-.957.333-.292.067-.574.219-.874.274-.052.191-.083.365.257.496.502-.082 1.097.241 1.732.145.508.287 1.105-.004 1.626.256.143.071.35.011.503.011l1.581 1.582v1.445l-.798.145c-.2.087-.523-.067-.778-.155-.559-.193-1.122-.368-1.719-.344-.247.01-.438-.132-.663-.182-.345-.075-.672-.239-1.037-.223-.281.012-.559.003-.81-.137-.322-.18-.671-.145-1.011-.126-.672.037-1.294-.213-1.942-.308-.067-.01-.123-.119-.27-.084l-1.384 1.631c.106.579-.121 1.076-.328 1.55-.359.82-.483 1.663-.465 2.544.002.109.198.128.076.273-.428-.085-.686-.368-.868-.803v-.874l-.614-.615c-.07-.041-.069-.122-.047-.175l-.14-.414c.08-.216.186-.43.145-.673.446-.594.41-1.284.384-1.956.07-.153.25-.203.285-.432-.494-.211-.921-.565-1.425-.871-.41 0-.854-.027-1.293.007-.444.035-.88-.077-1.209-.295-.598-.396-1.219-.558-1.89-.509-.113-.15-.041-.226.041-.308l1.44-1.439c1.029.248 2.063.204 3.105.448.187.154.219.517.581.643.789-.637 1.662-.484 2.54-.102.187-.251.456-.379.536-.679.02-.074.109-.146.184-.187.53-.291.859-.805 1.312-1.178.744-.612 1.599-1.269 2.85-1.489.248-.044.491-.118.764-.115zm46.468 31.255c-.332.313-.587.619-.995.774-.294.112-.598.213-.892.236-.655.051-1.317.016-1.987.016l-.02-.249c.432-.001.8-.195 1.19-.328.427-.145.86-.285 1.311-.366.443-.079.876-.187 1.392-.083zm-5.749 8.209v-.601c.18-.126.455.073.587-.183.115.245.296.471.167.785h-.755zm-.629.598c-.29.14-.518.318-.822.188v-1.032c.388.199.401.691.822.844z"/>
</svg>
