<svg width="200" height="39" viewBox="0 0 399 77" 
  xmlns="http://www.w3.org/2000/svg">
  <g stroke="none" fill-rule="evenodd">
    <path d="M394.042,66.896 L394.042,70.134 L397.946,70.134 L397.946,71.557 L394.042,71.557 L394.042,74.614 L398.764,74.614 L398.764,76.051 L392.348,76.051 L392.348,65.459 L398.764,65.459 L398.764,66.896 L394.042,66.896 Z M385.616,65.459 L383.241,76.051 L380.094,76.051 L377.718,65.459 L379.519,65.459 L381.576,74.614 L381.773,74.614 L383.831,65.459 L385.616,65.459 Z M368.627,66.896 L368.627,74.614 L370.79,74.614 L370.79,76.051 L364.768,76.051 L364.768,74.614 L366.916,74.614 L366.916,66.896 L364.768,66.896 L364.768,65.459 L370.79,65.459 L370.79,66.896 L368.627,66.896 Z M357.507,66.896 L354.738,66.896 L354.738,76.051 L353.028,76.051 L353.028,66.896 L350.274,66.896 L350.274,65.459 L357.507,65.459 L357.507,66.896 Z M340.229,76.218 C337.914,76.218 336.28,75.068 336.28,70.785 C336.28,66.518 337.914,65.368 340.229,65.368 C341.804,65.368 342.953,65.928 343.68,67.29 L342.136,68.122 C341.728,67.229 341.046,66.821 340.229,66.821 C338.913,66.821 338.051,67.577 338.051,70.785 C338.051,74.008 338.913,74.765 340.229,74.765 C341.152,74.765 341.788,74.22 342.166,73.418 L343.725,74.22 C342.953,75.688 341.712,76.218 340.229,76.218 Z M327.31,71.724 L326.175,66.699 L326.054,66.699 L324.918,71.724 L327.31,71.724 Z M327.627,73.161 L324.601,73.161 L323.95,76.051 L322.21,76.051 L324.586,65.459 L327.642,65.459 L330.019,76.051 L328.277,76.051 L327.627,73.161 Z M310.485,70.271 L312.528,70.271 C313.497,70.271 313.921,69.938 313.921,68.516 C313.921,67.274 313.437,66.896 312.483,66.896 L310.485,66.896 L310.485,70.271 Z M313.784,76.051 L311.924,71.708 L310.485,71.708 L310.485,76.051 L308.791,76.051 L308.791,65.459 L312.483,65.459 C313.754,65.459 315.631,65.716 315.631,68.5 C315.631,70.543 314.678,71.315 313.663,71.572 L315.661,76.051 L313.784,76.051 Z M296.824,66.896 L296.824,70.134 L300.729,70.134 L300.729,71.557 L296.824,71.557 L296.824,74.614 L301.546,74.614 L301.546,76.051 L295.13,76.051 L295.13,65.459 L301.546,65.459 L301.546,66.896 L296.824,66.896 Z M288.065,66.896 L285.297,66.896 L285.297,76.051 L283.587,76.051 L283.587,66.896 L280.833,66.896 L280.833,65.459 L288.065,65.459 L288.065,66.896 Z M273.98,65.459 L273.98,76.051 L271.998,76.051 L268.836,68.545 L268.836,76.051 L267.141,76.051 L267.141,65.459 L269.123,65.459 L272.286,72.964 L272.286,65.459 L273.98,65.459 Z M257.521,66.896 L257.521,74.614 L259.684,74.614 L259.684,76.051 L253.661,76.051 L253.661,74.614 L255.81,74.614 L255.81,66.896 L253.661,66.896 L253.661,65.459 L259.684,65.459 L259.684,66.896 L257.521,66.896 Z M217.913,46.058 C217.82,46.058 217.729,46.048 217.637,46.044 C217.301,46.028 216.964,45.992 216.625,45.92 L216.625,45.921 C213.784,45.319 211.653,42.799 211.653,39.773 L211.653,35.485 C211.653,33.621 212.467,31.953 213.753,30.802 L223.581,42.515 C222.534,44.678 220.329,46.069 217.913,46.058 Z M237.992,47.699 L232.114,40.705 L235.194,26.182 C235.334,25.521 234.83,24.9 234.155,24.9 L228.655,24.9 C227.987,24.9 227.409,25.368 227.271,26.022 L225.764,33.135 L213.123,18.072 C212.128,16.885 211.648,15.441 211.654,14.007 C211.655,13.809 211.665,13.612 211.684,13.417 C211.689,13.356 211.701,13.296 211.709,13.235 C211.727,13.095 211.745,12.954 211.772,12.817 C211.789,12.731 211.813,12.646 211.833,12.562 C211.859,12.45 211.885,12.338 211.918,12.229 C211.946,12.134 211.98,12.04 212.014,11.946 C212.048,11.849 212.081,11.751 212.12,11.656 C212.159,11.56 212.204,11.465 212.249,11.371 C212.291,11.281 212.331,11.191 212.377,11.104 C212.428,11.008 212.484,10.915 212.54,10.821 C212.588,10.741 212.634,10.66 212.686,10.582 C212.752,10.48 212.824,10.383 212.897,10.286 C212.945,10.221 212.991,10.155 213.042,10.092 C213.135,9.977 213.235,9.866 213.338,9.755 C213.374,9.716 213.408,9.676 213.445,9.638 C213.587,9.493 213.736,9.353 213.895,9.22 C213.896,9.219 213.897,9.217 213.899,9.216 C215.003,8.29 216.332,7.815 217.669,7.76 C217.743,7.756 217.817,7.749 217.893,7.749 C218.041,7.748 218.188,7.756 218.336,7.766 C218.391,7.77 218.445,7.77 218.5,7.774 C218.67,7.79 218.839,7.814 219.008,7.844 C219.036,7.849 219.064,7.852 219.093,7.856 C219.271,7.89 219.449,7.933 219.626,7.982 C219.643,7.987 219.66,7.99 219.678,7.996 C219.856,8.047 220.032,8.107 220.205,8.175 C220.221,8.181 220.236,8.185 220.252,8.191 C220.424,8.259 220.592,8.337 220.759,8.42 C220.775,8.429 220.792,8.436 220.809,8.445 C220.973,8.529 221.134,8.623 221.292,8.723 C221.308,8.733 221.324,8.742 221.341,8.752 C221.503,8.857 221.662,8.971 221.815,9.093 C221.823,9.099 221.832,9.104 221.84,9.111 C222.165,9.37 222.471,9.665 222.748,9.996 L222.75,9.995 C223.434,10.811 223.915,11.802 224.114,12.894 C224.235,13.557 224.824,14.032 225.498,14.032 L230.42,14.032 C231.252,14.032 231.925,13.315 231.834,12.488 C231.523,9.669 230.376,7.106 228.647,5.046 C228.643,5.04 228.638,5.035 228.633,5.03 C228.341,4.683 228.032,4.351 227.708,4.034 C227.631,3.959 227.55,3.892 227.472,3.819 C227.217,3.581 226.959,3.348 226.688,3.129 C226.571,3.036 226.449,2.952 226.331,2.863 C226.086,2.679 225.841,2.497 225.584,2.329 C225.452,2.242 225.315,2.165 225.181,2.083 C224.925,1.928 224.669,1.775 224.404,1.636 C224.271,1.567 224.136,1.507 224.001,1.442 C223.725,1.309 223.447,1.179 223.161,1.063 C223.033,1.012 222.903,0.969 222.774,0.921 C222.478,0.812 222.181,0.706 221.875,0.617 C221.743,0.578 221.609,0.549 221.477,0.514 C221.175,0.435 220.873,0.358 220.563,0.3 C220.403,0.269 220.241,0.251 220.08,0.226 C219.798,0.182 219.518,0.137 219.23,0.11 C219,0.089 218.77,0.085 218.538,0.075 C218.338,0.067 218.141,0.045 217.938,0.045 C217.915,0.045 217.892,0.048 217.867,0.049 C217.553,0.05 217.239,0.074 216.925,0.096 C216.779,0.107 216.63,0.106 216.485,0.121 C216.033,0.167 215.583,0.236 215.135,0.327 C214.929,0.369 214.729,0.431 214.526,0.482 C214.286,0.542 214.045,0.593 213.807,0.667 C213.553,0.745 213.31,0.844 213.062,0.936 C212.881,1.003 212.697,1.06 212.52,1.135 C212.17,1.282 211.833,1.45 211.499,1.623 C211.429,1.66 211.355,1.688 211.285,1.726 C210.876,1.948 210.48,2.189 210.098,2.449 C210.057,2.477 210.02,2.51 209.979,2.538 C209.638,2.774 209.305,3.022 208.987,3.288 C208.975,3.298 208.961,3.307 208.948,3.317 C208.848,3.402 208.761,3.496 208.663,3.582 C208.43,3.79 208.195,3.998 207.977,4.221 C207.826,4.373 207.69,4.533 207.549,4.69 C207.388,4.87 207.224,5.046 207.072,5.233 C206.921,5.419 206.784,5.613 206.644,5.805 C206.517,5.979 206.387,6.151 206.268,6.331 C206.137,6.53 206.019,6.734 205.898,6.939 C205.786,7.128 205.673,7.315 205.569,7.51 C205.466,7.707 205.375,7.909 205.281,8.109 C205.181,8.323 205.079,8.536 204.989,8.755 C204.912,8.946 204.847,9.141 204.777,9.334 C204.693,9.57 204.607,9.805 204.536,10.046 C204.478,10.242 204.434,10.439 204.385,10.637 C204.324,10.878 204.261,11.119 204.213,11.366 C204.169,11.593 204.141,11.822 204.108,12.051 C204.077,12.27 204.04,12.485 204.019,12.708 C203.989,13.015 203.981,13.323 203.973,13.632 C203.969,13.766 203.952,13.896 203.952,14.032 L203.956,14.032 C203.955,17.206 205.023,20.398 207.225,23.022 L208.804,24.905 C205.837,27.468 203.952,31.252 203.952,35.485 L203.952,39.773 C203.952,46.928 209.316,52.811 216.238,53.647 C216.31,53.656 216.382,53.673 216.453,53.68 C216.666,53.703 216.883,53.705 217.098,53.718 C217.366,53.734 217.635,53.757 217.9,53.758 C217.911,53.758 217.921,53.76 217.932,53.76 L217.932,53.757 C222.165,53.761 226.111,51.831 228.73,48.651 L232.099,52.662 C232.603,53.255 233.491,53.33 234.088,52.83 L237.821,49.697 C238.421,49.194 238.498,48.298 237.992,47.699 Z M398.764,47.247 L398.764,51.514 C398.764,52.562 398.165,53.161 397.116,53.161 L396.443,53.161 C388.731,53.161 384.389,49.492 384.389,40.434 L384.389,2.4 C384.389,1.352 384.988,0.753 386.036,0.753 L390.229,0.753 C391.277,0.753 391.951,1.352 391.951,2.4 L391.951,40.434 C391.951,43.952 393.897,45.599 396.593,45.599 L397.491,45.599 C398.39,45.599 398.764,46.273 398.764,47.247 Z M372.932,30.85 C372.033,25.759 367.542,21.642 361.926,21.642 C356.61,21.642 351.819,25.235 350.921,30.85 L372.932,30.85 Z M379.371,36.84 L350.846,36.84 C352.343,42.904 357.284,46.498 362.75,46.498 C366.718,46.498 370.162,44.626 372.707,42.604 C373.531,41.931 374.354,42.005 375.028,42.829 L377.424,45.749 C378.098,46.573 378.022,47.396 377.274,48.07 C372.707,52.113 367.392,53.76 362.675,53.76 C351.295,53.76 343.06,44.477 343.06,33.919 C343.06,23.213 351.444,15.127 362.001,15.127 C372.408,15.127 380.344,22.989 381.018,35.192 C381.018,36.241 380.419,36.84 379.371,36.84 Z M332.501,30.85 C331.603,25.759 327.11,21.642 321.495,21.642 C316.18,21.642 311.388,25.235 310.489,30.85 L332.501,30.85 Z M338.939,36.84 L310.415,36.84 C311.912,42.904 316.854,46.498 322.319,46.498 C326.286,46.498 329.73,44.626 332.276,42.604 C333.1,41.931 333.923,42.005 334.597,42.829 L336.993,45.749 C337.667,46.573 337.592,47.396 336.843,48.07 C332.276,52.113 326.961,53.76 322.243,53.76 C310.864,53.76 302.628,44.477 302.628,33.919 C302.628,23.213 311.014,15.127 321.569,15.127 C331.977,15.127 339.913,22.989 340.587,35.192 C340.587,36.241 339.987,36.84 338.939,36.84 Z M301.503,47.247 L301.503,51.514 C301.503,52.562 300.83,53.161 299.856,53.161 L294.99,53.161 C287.129,53.161 281.813,48.07 281.813,39.759 L281.813,5.47 C281.813,4.421 282.412,3.823 283.46,3.823 L287.653,3.823 C288.701,3.823 289.375,4.421 289.375,5.47 L289.375,15.727 L300.156,15.727 C301.054,15.727 301.653,16.326 301.653,17.224 L301.653,20.818 C301.653,21.791 301.054,22.315 300.156,22.315 L289.375,22.315 L289.375,39.834 C289.375,43.054 291.92,45.599 295.14,45.599 L299.856,45.599 C300.83,45.599 301.503,46.273 301.503,47.247 Z M276.048,19.845 L274.475,22.54 C273.951,23.438 273.127,23.588 272.229,23.064 C270.656,22.24 268.561,21.417 266.389,21.417 C263.47,21.417 260.924,22.839 260.924,25.16 C260.924,27.706 263.844,28.679 267.587,30.027 C273.502,32.123 278.742,36.166 278.742,42.305 C278.742,48.519 273.427,53.76 265.79,53.76 C261.822,53.76 257.779,52.413 254.71,50.765 C253.812,50.241 253.587,49.492 254.036,48.519 L255.608,45.225 C256.058,44.252 256.881,44.027 257.779,44.477 C260.101,45.599 263.095,46.573 265.565,46.573 C269.309,46.573 270.956,44.326 270.956,42.155 C270.956,39.61 268.636,38.188 263.47,36.166 C259.726,34.668 253.661,32.198 253.661,25.534 C253.661,19.321 259.053,15.127 266.09,15.127 C269.684,15.127 272.678,16.176 275.448,17.673 C276.347,18.123 276.571,18.946 276.048,19.845 Z M188.617,31.093 L188.617,51.607 C188.617,52.655 188.019,53.254 186.971,53.254 L182.702,53.254 C181.729,53.254 181.056,52.655 181.056,51.607 L181.056,31.093 C181.056,26.451 177.312,22.708 172.67,22.708 C168.028,22.708 164.285,26.451 164.285,31.093 L164.285,51.607 C164.285,52.655 163.686,53.254 162.638,53.254 L158.445,53.254 C157.396,53.254 156.798,52.655 156.798,51.607 L156.798,31.093 C156.798,26.451 153.055,22.708 148.413,22.708 C143.696,22.708 139.952,26.451 139.952,31.093 L139.952,51.607 C139.952,52.655 139.354,53.254 138.306,53.254 L134.113,53.254 C133.065,53.254 132.466,52.655 132.466,51.607 L132.466,17.467 C132.466,16.419 133.065,15.82 134.113,15.82 L137.183,15.82 C138.156,15.82 138.68,16.419 138.68,17.317 L138.68,19.339 C140.927,16.943 144.444,15.221 148.638,15.221 C153.578,15.221 157.697,17.542 160.541,21.136 C163.312,17.542 167.729,15.221 172.745,15.221 C181.43,15.221 188.617,22.333 188.617,31.093 Z M126.027,53.254 L121.909,53.254 C120.861,53.254 120.262,52.655 120.262,51.607 L120.262,17.467 C120.262,16.419 120.861,15.82 121.909,15.82 L126.027,15.82 C127.075,15.82 127.674,16.419 127.674,17.467 L127.674,51.607 C127.674,52.655 127.075,53.254 126.027,53.254 Z M128.572,8.034 C128.572,10.729 126.701,12.601 123.931,12.601 C121.534,12.601 119.363,10.729 119.363,8.034 C119.363,5.638 121.534,3.466 123.931,3.466 C126.701,3.466 128.572,5.638 128.572,8.034 Z M115.843,31.093 L115.843,51.607 C115.843,52.655 115.244,53.254 114.196,53.254 L110.004,53.254 C108.955,53.254 108.356,52.655 108.356,51.607 L108.356,31.093 C108.356,26.451 104.538,22.708 99.971,22.708 C95.254,22.708 91.511,26.451 91.511,31.093 L91.511,51.607 C91.511,52.655 90.912,53.254 89.864,53.254 L85.671,53.254 C84.623,53.254 84.023,52.655 84.023,51.607 L84.023,17.467 C84.023,16.419 84.623,15.82 85.671,15.82 L88.666,15.82 C89.64,15.82 90.238,16.419 90.238,17.317 L90.238,18.964 C93.009,16.644 96.526,15.221 100.271,15.221 C108.955,15.221 115.843,22.333 115.843,31.093 Z M72.566,30.943 C71.668,25.852 67.177,21.734 61.562,21.734 C56.245,21.734 51.454,25.328 50.556,30.943 L72.566,30.943 Z M79.006,36.933 L50.48,36.933 C51.978,42.997 56.92,46.591 62.385,46.591 C66.353,46.591 69.797,44.719 72.342,42.698 C73.166,42.024 73.989,42.099 74.663,42.922 L77.059,45.842 C77.733,46.666 77.657,47.489 76.909,48.163 C72.342,52.206 67.026,53.853 62.31,53.853 C50.93,53.853 42.694,44.57 42.694,34.013 C42.694,23.307 51.079,15.221 61.636,15.221 C72.043,15.221 79.979,23.082 80.652,35.286 C80.652,36.334 80.054,36.933 79.006,36.933 Z M31.688,34.537 C31.688,28.023 26.371,22.783 19.933,22.783 C13.494,22.783 8.179,28.023 8.179,34.537 C8.179,40.976 13.494,46.216 19.933,46.216 C26.371,46.216 31.688,40.976 31.688,34.537 Z M39.099,2.493 L39.099,51.607 C39.099,52.655 38.5,53.254 37.452,53.254 L34.232,53.254 C33.334,53.254 32.735,52.655 32.735,51.757 L32.735,48.687 C29.441,51.832 24.8,53.853 19.858,53.853 C9.151,53.853 0.542,45.168 0.542,34.537 C0.542,23.831 9.151,15.221 19.858,15.221 C24.351,15.221 28.543,16.943 31.612,19.713 L31.612,2.493 C31.612,1.445 32.286,0.846 33.26,0.846 L37.452,0.846 C38.5,0.846 39.099,1.445 39.099,2.493 Z" />
  </g>
</svg>