<svg width="120" height="48" viewBox="0 0 161 64" 
  xmlns="http://www.w3.org/2000/svg">
  <path d="M15.588 1.798c-1.017-1.236-2.598-1.798-4.179-1.798-1.355 0-2.711.449-3.841 1.461-1.13.786-1.807 2.135-2.033 3.483-.452 2.921 1.468 5.618 4.405 6.067l1.017.112c1.468 0 2.824-.562 3.954-1.461 1.13-.899 1.807-2.135 2.033-3.595.226-1.573-.226-3.146-1.355-4.27zm-10.731 13.483l9.827-.112-4.857 34.831h-9.827l4.857-34.719zm69.901 2.224c2.035 2.256 2.6 5.529 2.035 9.929l-3.165 22.453h-9.834l3.052-21.889c.565-3.836-.904-5.754-4.295-5.754-2.826.113-5.878 1.241-9.043 3.611 0 .451-.113 1.015-.113 1.58l-3.052 22.453h-9.834l3.052-21.776c.565-3.836-.904-5.641-4.182-5.641-2.939.113-6.104 1.354-9.269 3.836l-3.278 23.694h-9.834l4.86-34.977h9.834l-.565 3.836c3.391-3.046 7.686-4.739 12.207-4.852 1.921 0 3.956.451 5.652 1.467 1.696.903 2.939 2.369 3.617 4.175 2.148-1.805 4.521-3.159 7.008-4.175 2.147-.903 4.634-1.354 7.008-1.467 3.165-.113 6.104 1.128 8.138 3.498zm75.961-2.505h10.281l-27.043 49h-8.716l7.487-14.372-10.728-34.628h10.281l6.37 23.312 12.069-23.312zm-34.465 4.473c2.454 3.627 3.235 8.16 2.454 13.6-.558 4.76-2.566 9.293-5.801 12.806-2.789 3.173-6.917 5.1-11.156 5.1-1.339.113-2.678-.227-3.905-.793l-1.004-7.933c.892.34 2.008.567 3.012.567 2.343 0 4.574-1.133 6.024-3.06 1.785-2.153 2.901-4.986 3.235-7.82.446-2.38.223-4.873-.781-7.026-.781-1.473-2.343-2.267-4.016-2.267l-17.181-.113 6.917 6.8-1.785 15.526-9.037 5.213h-2.231l6.471-49.072h9.706l-2.12 17.113c3.012-2.607 6.917-4.08 10.822-4.08 4.128-.227 8.144 1.813 10.376 5.44zm-25.771 15.526c-.781.113-1.339.68-1.339 1.36s.558 1.36 1.339 1.36c.669 0 1.339-.567 1.339-1.36 0-.68-.558-1.36-1.339-1.36z" />
</svg>