<svg height="auto" viewBox="0 0 416 322" width="416" 
  xmlns="http://www.w3.org/2000/svg">
  <g fill="none">
    <path d="m67.167 320h-30.333l-10.833-37h52z" fill="#fff"/>
    <path d="m228 319-8.545-25h-29.909l-8.545 25z" fill="#fff"/>
    <path d="m224 305-3.917-11h-30.164l-3.919 11z" fill="#72c87c" opacity=".25"/>
    <path d="m258.406 138h49.594v156h-207v-156h53.906" fill="#fff"/>
    <path d="m193.75 163-10.75-96.277 21.5-52.723 21.5 52.723-10.75 96.277z" fill="#fff"/>
    <path d="m52 221 17 13.778v48.222h-17z" fill="#fd9a59" opacity=".5"/>
    <path d="m205 14 22 52.723-11 96.277h-11z" fill="#60b584" opacity=".25"/>
    <path d="m308 138v126h-207z" fill="#72c87c" opacity=".25"/>
    <path d="m348.365 246.474c.846.898.846 2.354 0 3.253l-4.333 4.6c-.846.898-2.218.898-3.064 0s-.846-2.354 0-3.253l2.801-2.974-7.135-7.574c-.846-.898-.846-2.354 0-3.253l4.333-4.6c.846-.898 2.218-.898 3.064 0s.846 2.354 0 3.253l-2.801 2.974z" fill="#37a1fc"/>
    <path d="m363.365 246.474c.846.898.846 2.354 0 3.253l-4.333 4.6c-.846.898-2.218.898-3.064 0s-.846-2.354 0-3.253l2.801-2.974-7.135-7.574c-.846-.898-.846-2.354 0-3.253l4.333-4.6c.846-.898 2.218-.898 3.064 0s.846 2.354 0 3.253l-2.801 2.974z" fill="#37a1fc"/>
    <path d="m378.365 246.474c.846.898.846 2.354 0 3.253l-4.333 4.6c-.846.898-2.218.898-3.064 0s-.846-2.354 0-3.253l2.801-2.974-7.135-7.574c-.846-.898-.846-2.354 0-3.253l4.333-4.6c.846-.898 2.218-.898 3.064 0s.846 2.354 0 3.253l-2.801 2.974z" fill="#37a1fc"/>
    <path d="m208.75 277.249-4.25-3.111-4.25 3.111v4.502l4.25 3.111 4.25-3.111zm3.304 7.693-6.375 4.667c-.714.523-1.644.523-2.357 0l-6.375-4.667c-.591-.433-.946-1.161-.946-1.941v-7c0-.78.355-1.509.946-1.941l6.375-4.667c.714-.523 1.644-.523 2.357 0l6.375 4.667c.591.433.946 1.161.946 1.941v7c0 .78-.355 1.509-.946 1.941z" fill="#37a1fc"/>
    <path d="m230.868 318.904c.514 1.505-.533 3.096-2.036 3.096h-47.663c-1.503 0-2.55-1.591-2.036-3.096l8.666-24.385c.311-.912 1.125-1.519 2.036-1.519h30.331c.911 0 1.725.607 2.036 1.519zm-12.22-22.288h-27.296l-7.09 20.769h41.477l-7.09-20.769z" fill="#60b584"/>
    <path d="m377.5 319h-39l-6.5-55h52z" fill="#fff"/>
    <path d="m68 283h-34v-48.222l17-13.778 17 13.778z" fill="#fff"/>
    <g fill="#60b584">
      <path d="m67.167 280.379v-45.052l-15.167-12.129-15.167 12.129v45.052h30.333zm-3.201-53.388 5.597 4.476 3.136-1.672c1.07-.571 2.372-.108 2.907 1.033s.101 2.529-.969 3.1l-3.136 1.672v7.814h4.333c1.197 0 2.167 1.034 2.167 2.31s-.97 2.31-2.167 2.31h-4.333v9.241h4.333c1.197 0 2.167 1.034 2.167 2.31s-.97 2.31-2.167 2.31h-4.333v9.241h4.333c1.197 0 2.167 1.034 2.167 2.31s-.97 2.31-2.167 2.31h-4.333v4.931c0 1.276-.97 2.31-2.167 2.31h-34.667c-1.197 0-2.167-1.034-2.167-2.31v-4.931h-4.333c-1.197 0-2.167-1.034-2.167-2.31s.97-2.31 2.167-2.31h4.333v-9.241h-4.333c-1.197 0-2.167-1.034-2.167-2.31s.97-2.31 2.167-2.31h4.333v-9.241h-4.333c-1.197 0-2.167-1.034-2.167-2.31s.97-2.31 2.167-2.31h4.333v-7.814l-3.136-1.672c-1.07-.571-1.504-1.958-.969-3.1.535-1.141 1.837-1.604 2.907-1.033l3.136 1.672 5.597-4.476-2.567-2.737c-.846-.902-.846-2.365 0-3.267s2.218-.902 3.064 0l3.005 3.204 7.163-5.729c.77-.616 1.83-.616 2.6 0l7.163 5.729 3.005-3.204c.846-.902 2.218-.902 3.064 0s.846 2.365 0 3.267l-2.567 2.737z"/>
      <path d="m381.406 266.615h-46.812l5.923 50.769h34.966zm-4.022 55.385h-38.769c-1.086 0-2.002-.867-2.137-2.021l-6.461-55.385c-.161-1.377.842-2.594 2.137-2.594h51.692c1.296 0 2.298 1.217 2.137 2.594l-6.461 55.385c-.135 1.155-1.051 2.021-2.137 2.021z"/>
      <path d="m30.17 295c-1.199 0-2.17-1.119-2.17-2.5s.972-2.5 2.17-2.5h44.66c1.199 0 2.17 1.119 2.17 2.5s-.972 2.5-2.17 2.5z"/>
      <path d="m74.915 284.556h-45.831l9.423 32.889h26.985zm-7.839 36.444h-30.152c-.942 0-1.775-.647-2.056-1.598l-10.769-36.444c-.433-1.467.603-2.957 2.056-2.957h51.69c1.453 0 2.489 1.49 2.056 2.957l-10.769 36.444c-.281.951-1.114 1.598-2.056 1.598z"/>
      <path d="m49.431 265.551c.493.771.493 1.774 0 2.545l-4.4 6.882c-.674 1.054-2.04 1.339-3.051.636s-1.284-2.127-.61-3.181l3.586-5.61-3.586-5.61c-.493-.771-.493-1.774 0-2.545l3.586-5.61-3.586-5.61c-.493-.771-.493-1.774 0-2.545l4.4-6.882c.674-1.054 2.04-1.339 3.051-.636s1.284 2.127.61 3.181l-3.586 5.61 3.586 5.61c.493.771.493 1.774 0 2.545l-3.586 5.61zm13.2 0c.493.771.493 1.774 0 2.545l-4.4 6.882c-.674 1.054-2.04 1.339-3.051.636s-1.284-2.127-.61-3.181l3.586-5.61-3.586-5.61c-.493-.771-.493-1.774 0-2.545l3.586-5.61-3.586-5.61c-.493-.771-.493-1.774 0-2.545l4.4-6.882c.674-1.054 2.04-1.339 3.051-.636s1.284 2.127.61 3.181l-3.586 5.61 3.586 5.61c.493.771.493 1.774 0 2.545l-3.586 5.61z"/>
      <path d="m21.153 322c-1.189 0-2.153-1.119-2.153-2.5s.964-2.5 2.153-2.5h374.693c1.189 0 2.153 1.119 2.153 2.5s-.964 2.5-2.153 2.5h-374.693z"/>
      <path d="m407.378 322c-1.19 0-2.155-1.119-2.155-2.5s.965-2.5 2.155-2.5h6.466c1.19 0 2.155 1.119 2.155 2.5s-.965 2.5-2.155 2.5zm-405.223 0c-1.19 0-2.155-1.119-2.155-2.5s.965-2.5 2.155-2.5h6.466c1.19 0 2.155 1.119 2.155 2.5s-.965 2.5-2.155 2.5z"/>
    </g>
    <path d="m213 79.25-8.5 5.75-8.5-5.75v-11.5l8.5-5.75 8.5 5.75z" fill="#fff"/>
    <path d="m211.6 69.46-6.6-4.375-6.6 4.375v9.08l6.6 4.375 6.6-4.375zm3.366 12.352-8.8 5.833c-.713.473-1.619.473-2.332 0l-8.8-5.833c-.643-.426-1.034-1.174-1.034-1.979v-11.667c0-.805.391-1.552 1.034-1.979l8.8-5.833c.713-.473 1.619-.473 2.332 0l8.8 5.833c.643.426 1.034 1.174 1.034 1.979v11.667c0 .805-.391 1.552-1.034 1.979z" fill="#fc6932"/>
    <path d="m213.336 160.723 10.449-94.094-19.285-47.549-19.285 47.549 10.449 94.094h17.671zm-10.836-148.265v-10.172c0-1.262.895-2.286 2-2.286s2 1.023 2 2.286v10.172l21.458 52.906c.152.374.208.785.163 1.191l-6.115 55.064 14.768 31.743c.53 1.138.098 2.522-.964 3.089-1.062.568-2.352.105-2.882-1.033l-11.847-25.466-3.568 32.126 14.006 12.87c.901.828 1.005 2.282.233 3.248s-2.129 1.078-3.03.25l-14.273-13.115h-19.899l-14.273 13.115c-.901.828-2.258.716-3.03-.25s-.668-2.42.233-3.248l14.006-12.87-3.568-32.126-11.847 25.466c-.53 1.138-1.82 1.601-2.882 1.033s-1.494-1.951-.964-3.089l14.768-31.743-6.115-55.064c-.045-.405.011-.816.163-1.191l21.458-52.906z" fill="#60b584"/>
    <path d="m182 186.286-11 13.714-11-13.714 11-50.286z" fill="#fff"/>
    <path d="m216 186.286-11 13.714-11-13.714 11-50.286z" fill="#fff"/>
    <path d="m205 145.678-8.483 39.623 8.483 10.806 8.483-10.806zm12.498 41.694-10.833 13.8c-.866 1.103-2.463 1.103-3.329 0l-10.833-13.8c-.432-.551-.598-1.283-.448-1.982l10.833-50.6c.511-2.387 3.715-2.387 4.226 0l10.833 50.6c.15.699-.016 1.432-.448 1.982z" fill="#60b584"/>
    <path d="m250 186.286-11 13.714-11-13.714 11-50.286z" fill="#fff"/>
    <path d="m239 145.678-8.483 39.623 8.483 10.806 8.483-10.806zm12.498 41.694-10.833 13.8c-.866 1.103-2.463 1.103-3.329 0l-10.833-13.8c-.432-.551-.598-1.283-.448-1.982l10.833-50.6c.511-2.387 3.715-2.387 4.226 0l10.833 50.6c.15.699-.016 1.432-.448 1.982z" fill="#60b584"/>
    <path d="m170 145.678-8.483 39.623 8.483 10.806 8.483-10.806zm12.498 41.694-10.833 13.8c-.866 1.103-2.463 1.103-3.329 0l-10.833-13.8c-.432-.551-.598-1.283-.448-1.982l10.833-50.6c.511-2.387 3.715-2.387 4.226 0l10.833 50.6c.15.699-.016 1.432-.448 1.982z" fill="#60b584"/>
    <path d="m161.167 189c-1.197 0-2.167-1.119-2.167-2.5s.97-2.5 2.167-2.5h17.667c1.197 0 2.167 1.119 2.167 2.5s-.97 2.5-2.167 2.5z" fill="#60b584"/>
    <path d="m196.167 189c-1.197 0-2.167-1.119-2.167-2.5s.97-2.5 2.167-2.5h17.667c1.197 0 2.167 1.119 2.167 2.5s-.97 2.5-2.167 2.5z" fill="#60b584"/>
    <path d="m230.167 189c-1.197 0-2.167-1.119-2.167-2.5s.97-2.5 2.167-2.5h17.667c1.197 0 2.167 1.119 2.167 2.5s-.97 2.5-2.167 2.5z" fill="#60b584"/>
    <path d="m358 303 13-13.636-6.5-11.364-6.5 6.818-6.5-6.818-6.5 11.364z" fill="#72c87c" opacity=".25"/>
    <path d="m362.913 276.676c.986-1.062 2.635-.843 3.353.444l6.429 11.538c.506.908.373 2.07-.322 2.819l-12.857 13.846c-.837.901-2.194.901-3.03 0l-12.857-13.846c-.695-.749-.828-1.911-.322-2.819l6.429-11.538c.717-1.287 2.367-1.506 3.353-.444l4.913 5.291 4.913-5.291zm5.245 12.812-4.156-7.459-4.488 4.833c-.837.901-2.194.901-3.03 0l-4.488-4.833-4.156 7.459 10.159 10.94z" fill="#60b584"/>
    <path d="m382.333 280.571c-1.178 0-2.133-1.023-2.133-2.286 0-1.262.955-2.286 2.133-2.286h16.531c1.522 0 2.555 1.659 1.969 3.165l-10.667 27.429c-.331.852-1.108 1.407-1.969 1.407h-9.065c-1.178 0-2.133-1.023-2.133-2.286 0-1.262.955-2.286 2.133-2.286h7.642l8.889-22.857h-13.331z" fill="#60b584"/>
    <path d="m203.333 211.857c0-1.262.97-2.286 2.167-2.286s2.167 1.023 2.167 2.286v13.714c0 1.262-.97 2.286-2.167 2.286s-2.167-1.023-2.167-2.286zm0 22.857c0-1.262.97-2.286 2.167-2.286s2.167 1.023 2.167 2.286v4.571c0 1.262-.97 2.286-2.167 2.286s-2.167-1.023-2.167-2.286zm8.667-27.429c0-1.262.97-2.286 2.167-2.286s2.167 1.023 2.167 2.286v13.714c0 1.262-.97 2.286-2.167 2.286s-2.167-1.023-2.167-2.286zm0 22.857c0-1.262.97-2.286 2.167-2.286s2.167 1.023 2.167 2.286v4.571c0 1.262-.97 2.286-2.167 2.286s-2.167-1.023-2.167-2.286zm-17.333-22.857c0-1.262.97-2.286 2.167-2.286s2.167 1.023 2.167 2.286v13.714c0 1.262-.97 2.286-2.167 2.286s-2.167-1.023-2.167-2.286zm0 22.857c0-1.262.97-2.286 2.167-2.286s2.167 1.023 2.167 2.286v4.571c0 1.262-.97 2.286-2.167 2.286s-2.167-1.023-2.167-2.286zm8.667 18.286c0-1.262.97-2.286 2.167-2.286s2.167 1.023 2.167 2.286v2.286c0 1.262-.97 2.286-2.167 2.286s-2.167-1.023-2.167-2.286zm8.667-4.571c0-1.262.97-2.286 2.167-2.286s2.167 1.023 2.167 2.286v2.286c0 1.262-.97 2.286-2.167 2.286s-2.167-1.023-2.167-2.286zm-17.333 0c0-1.262.97-2.286 2.167-2.286s2.167 1.023 2.167 2.286v2.286c0 1.262-.97 2.286-2.167 2.286s-2.167-1.023-2.167-2.286zm-26-32c0-1.262.97-2.286 2.167-2.286s2.167 1.023 2.167 2.286v13.714c0 1.262-.97 2.286-2.167 2.286s-2.167-1.023-2.167-2.286zm0 22.857c0-1.262.97-2.286 2.167-2.286s2.167 1.023 2.167 2.286v4.571c0 1.262-.97 2.286-2.167 2.286s-2.167-1.023-2.167-2.286zm8.667-27.429c0-1.262.97-2.286 2.167-2.286s2.167 1.023 2.167 2.286v13.714c0 1.262-.97 2.286-2.167 2.286s-2.167-1.023-2.167-2.286zm0 22.857c0-1.262.97-2.286 2.167-2.286s2.167 1.023 2.167 2.286v4.571c0 1.262-.97 2.286-2.167 2.286s-2.167-1.023-2.167-2.286zm-17.333-22.857c0-1.262.97-2.286 2.167-2.286s2.167 1.023 2.167 2.286v13.714c0 1.262-.97 2.286-2.167 2.286s-2.167-1.023-2.167-2.286zm0 22.857c0-1.262.97-2.286 2.167-2.286s2.167 1.023 2.167 2.286v4.571c0 1.262-.97 2.286-2.167 2.286s-2.167-1.023-2.167-2.286zm8.667 18.286c0-1.262.97-2.286 2.167-2.286s2.167 1.023 2.167 2.286v2.286c0 1.262-.97 2.286-2.167 2.286s-2.167-1.023-2.167-2.286zm8.667-4.571c0-1.262.97-2.286 2.167-2.286s2.167 1.023 2.167 2.286v2.286c0 1.262-.97 2.286-2.167 2.286s-2.167-1.023-2.167-2.286zm-17.333 0c0-1.262.97-2.286 2.167-2.286s2.167 1.023 2.167 2.286v2.286c0 1.262-.97 2.286-2.167 2.286s-2.167-1.023-2.167-2.286zm78-32c0-1.262.97-2.286 2.167-2.286s2.167 1.023 2.167 2.286v13.714c0 1.262-.97 2.286-2.167 2.286s-2.167-1.023-2.167-2.286zm0 22.857c0-1.262.97-2.286 2.167-2.286s2.167 1.023 2.167 2.286v4.571c0 1.262-.97 2.286-2.167 2.286s-2.167-1.023-2.167-2.286zm8.667-27.429c0-1.262.97-2.286 2.167-2.286s2.167 1.023 2.167 2.286v13.714c0 1.262-.97 2.286-2.167 2.286s-2.167-1.023-2.167-2.286zm0 22.857c0-1.262.97-2.286 2.167-2.286s2.167 1.023 2.167 2.286v4.571c0 1.262-.97 2.286-2.167 2.286s-2.167-1.023-2.167-2.286zm-17.333-22.857c0-1.262.97-2.286 2.167-2.286s2.167 1.023 2.167 2.286v13.714c0 1.262-.97 2.286-2.167 2.286s-2.167-1.023-2.167-2.286zm0 22.857c0-1.262.97-2.286 2.167-2.286s2.167 1.023 2.167 2.286v4.571c0 1.262-.97 2.286-2.167 2.286s-2.167-1.023-2.167-2.286zm8.667 18.286c0-1.262.97-2.286 2.167-2.286s2.167 1.023 2.167 2.286v2.286c0 1.262-.97 2.286-2.167 2.286s-2.167-1.023-2.167-2.286zm8.667-4.571c0-1.262.97-2.286 2.167-2.286s2.167 1.023 2.167 2.286v2.286c0 1.262-.97 2.286-2.167 2.286s-2.167-1.023-2.167-2.286zm-17.333 0c0-1.262.97-2.286 2.167-2.286s2.167 1.023 2.167 2.286v2.286c0 1.262-.97 2.286-2.167 2.286s-2.167-1.023-2.167-2.286z" fill="#b083c8"/>
    <path d="m305.694 140.6h-47.367c-1.189 0-2.153-1.03-2.153-2.3s.964-2.3 2.153-2.3h49.52c1.189 0 2.153 1.03 2.153 2.3v156.4c0 1.27-.964 2.3-2.153 2.3h-206.694c-1.189 0-2.153-1.03-2.153-2.3v-156.4c0-1.27.964-2.3 2.153-2.3h53.827c1.189 0 2.153 1.03 2.153 2.3s-.964 2.3-2.153 2.3h-51.673v151.8h202.388v-151.8z" fill="#60b584"/>
    <path d="m101.153 267c-1.189 0-2.153-1.119-2.153-2.5s.964-2.5 2.153-2.5h206.694c1.189 0 2.153 1.119 2.153 2.5s-.964 2.5-2.153 2.5z" fill="#60b584"/>
  </g>
</svg>