<svg width="32" height="32" viewBox="0 0 32 32" xmlns="http://www.w3.org/2000/svg">
    <path d="M30.556 0h-29.112c-.796 0-1.444.646-1.444 1.442v29.116c0 .794.648 1.442 1.444 1.442h29.112c.796 0 1.444-.648 1.444-1.442v-29.116c0-.796-.648-1.442-1.444-1.442zm-8.972 16c0 3.084-2.5 5.584-5.584 5.584s-5.584-2.5-5.584-5.584c0-3.084 2.5-5.584 5.584-5.584s5.584 2.5 5.584 5.584zm6.416 12h-24v-14h2.634c-.138.646-.218 1.314-.218 2 0 5.284 4.3 9.584 9.584 9.584s9.584-4.3 9.584-9.584c0-.686-.08-1.354-.218-2h2.634v14zm0-18h-6v-6h6v6z"/>
</svg>
